<svg xmlns="http://www.w3.org/2000/svg" viewBox="0 0 370.47 389.61"><defs><style>.cls-1{isolation:isolate;}.cls-2{fill:#dae5e8;}.cls-3{opacity:0.5;mix-blend-mode:multiply;}.cls-4{fill:#00aa91;}.cls-5{fill:#007d6b;}.cls-6{fill:#d15e30;}.cls-7{fill:#ff8453;}.cls-11,.cls-8{fill:#fff;}.cls-10,.cls-8{mix-blend-mode:soft-light;}.cls-15,.cls-9{fill:#333842;}.cls-9{opacity:0.32;}.cls-12{fill:#586376;}.cls-13{fill:#c0c9cc;}.cls-14{fill:#dae4e8;}</style></defs><title>Recurso 1</title><g class="cls-1"><g id="Capa_2" data-name="Capa 2"><g id="OBJECTS"><ellipse class="cls-2" cx="182.9" cy="385.48" rx="80.43" ry="4.12"/><rect class="cls-3" x="4.33" y="107.58" width="100.59" height="29.72" transform="translate(-42.45 29.96) rotate(-22.35)"/><rect class="cls-4" x="4.33" y="106.46" width="100.59" height="29.72" transform="translate(-42.02 29.88) rotate(-22.35)"/><rect class="cls-5" x="7.15" y="120.76" width="100.59" height="14.86" transform="translate(-44.42 31.47) rotate(-22.35)"/><rect class="cls-6" x="10.53" y="137.33" width="10.59" height="1.58" transform="translate(-51.33 16.39) rotate(-22.35)"/><rect class="cls-7" x="9.93" y="135.87" width="10.59" height="1.58" transform="translate(-50.82 16.05) rotate(-22.35)"/><rect class="cls-6" x="88.75" y="105.18" width="10.59" height="1.58" transform="translate(-33.23 43.71) rotate(-22.35)"/><rect class="cls-7" x="88.15" y="103.72" width="10.59" height="1.58" transform="translate(-32.72 43.38) rotate(-22.35)"/><circle class="cls-5" cx="12.34" cy="130.08" r="4.33"/><rect class="cls-5" x="17.51" y="120.22" width="16.53" height="8.67" transform="translate(-45.42 19.15) rotate(-22.35)"/><rect class="cls-8" x="-1.11" y="107.53" width="100.59" height="1.12" transform="translate(-37.4 26.82) rotate(-22.35)"/><rect class="cls-9" x="273.17" y="25.89" width="101.28" height="64.73" transform="translate(370.52 383.93) rotate(-108.36)"/><rect class="cls-7" x="270.95" y="26.63" width="101.28" height="64.73" transform="translate(366.91 382.79) rotate(-108.36)"/><polygon class="cls-6" points="336.35 0.73 368.26 96.86 306.83 117.25 336.35 0.73"/><rect class="cls-8" x="240.9" y="68.26" width="101.28" height="1.4" transform="translate(317.92 367.39) rotate(-108.36)"/><ellipse class="cls-6" cx="296.61" cy="34.59" rx="6.87" ry="13.69" transform="translate(4.2 95.2) rotate(-18.36)"/><path class="cls-9" d="M60.21,29.81c1-11-4-20.43-12.28-22.33-9.1-2.07-17,3.66-20.81,14.79L19,20.41l-19,61L59,94.81l.09,0,9.31-63.15Zm-30.55-.33a3.11,3.11,0,0,1-.18.54l-.13.24c-.05.08-.09.16-.14.23a1.73,1.73,0,0,1-.17.21,1.63,1.63,0,0,1-.17.2l-.2.18-.22.16c-.06.05-.14.09-.21.14l-.26.13-.22.08a1.49,1.49,0,0,1-.3.09l-.21.05-.36,0H26.7a2.08,2.08,0,0,1-.55-.07,2.45,2.45,0,0,1-.54-.18c-.05,0-.1-.06-.16-.08l-.31-.18L25,31.11c-.08-.07-.16-.13-.24-.21l-.16-.17c-.06-.08-.12-.15-.17-.23s-.1-.14-.14-.21L24.14,30a2.44,2.44,0,0,1-.1-.24,2.33,2.33,0,0,1-.07-.25,2.68,2.68,0,0,1-.07-.27c0-.09,0-.18,0-.26s0-.19,0-.28h0a2.68,2.68,0,0,1,.07-.56A2.91,2.91,0,0,1,26,26c0,.19-.09.37-.14.57a.66.66,0,0,0,0,.14h0a1.39,1.39,0,0,0,1.07,1.54,1.41,1.41,0,0,0,1.68-1.06c0-.19.09-.37.13-.55A2.92,2.92,0,0,1,29.66,29.48ZM47.3,10.21c6.72,1.53,10.8,9.6,10.14,19L29.86,22.89C33.24,13.28,39.69,8.48,47.3,10.21ZM60.27,37h0l-.13.24c0,.08-.09.16-.14.23l-.17.21c-.06.07-.11.14-.17.2l-.2.17a1.84,1.84,0,0,1-.22.17,1.48,1.48,0,0,1-.21.13l-.26.13a1.45,1.45,0,0,1-.22.09l-.3.09-.21,0-.36,0h-.19a3.45,3.45,0,0,1-.55-.07,2.45,2.45,0,0,1-.54-.18l-.16-.09a1.92,1.92,0,0,1-.31-.18l-.17-.13-.24-.21a1.29,1.29,0,0,1-.16-.17l-.18-.23-.13-.21-.12-.25a2.44,2.44,0,0,1-.1-.24c0-.08,0-.17-.08-.26l-.06-.26c0-.09,0-.18,0-.27a2.44,2.44,0,0,1,0-.27,2.1,2.1,0,0,1,.07-.56A2.9,2.9,0,0,1,56.91,33c0,.2-.08.41-.13.62a1.4,1.4,0,1,0,2.73.62c0-.17.07-.34.11-.5a2.91,2.91,0,0,1,.83,2.75A3.11,3.11,0,0,1,60.27,37Z"/><path class="cls-2" d="M68.42,30.56,19,19.29l-19,61L59.11,93.71Zm-42.27,0a2.93,2.93,0,1,1,3.51-2.21A2.93,2.93,0,0,1,26.15,30.57Zm30.79,7a2.93,2.93,0,1,1,3.51-2.21A2.93,2.93,0,0,1,56.94,37.59Z"/><g class="cls-10"><polygon class="cls-11" points="18.72 20.38 68.17 31.65 59.02 93.69 59.11 93.71 68.42 30.56 18.97 19.29 0 80.24 0.09 80.26 18.72 20.38"/><path class="cls-11" d="M56.69,38.68a2.93,2.93,0,0,0,3.51-2.21,3.43,3.43,0,0,0,.07-.56,2.93,2.93,0,0,1-5.61-1.28,2.45,2.45,0,0,0-.18.54A2.93,2.93,0,0,0,56.69,38.68Z"/><path class="cls-11" d="M25.9,31.66a2.93,2.93,0,0,0,3.51-2.2,3.73,3.73,0,0,0,.07-.56,2.93,2.93,0,0,1-5.61-1.28,2.37,2.37,0,0,0-.18.53A2.93,2.93,0,0,0,25.9,31.66Z"/></g><path class="cls-12" d="M57.83,34.19a1.41,1.41,0,0,1-1-1.68c2.54-11.14-1.71-21.65-9.48-23.42-8.68-2-15.84,4.54-18.68,17a1.4,1.4,0,1,1-2.74-.62C29.06,11.53,37.71,4,47.93,6.36c9.43,2.15,14.51,13.91,11.58,26.77A1.4,1.4,0,0,1,57.83,34.19Z"/><path class="cls-8" d="M47.68,7.45c9.2,2.1,14.26,13.35,11.78,25.84a.75.75,0,0,0,0-.16C62.44,20.27,57.36,8.51,47.93,6.36,37.71,4,29.06,11.53,25.88,25.47a.61.61,0,0,0,0,.14C29.21,12.29,37.7,5.18,47.68,7.45Z"/><path class="cls-13" d="M33,71.64c5.31-.88,15.73-7,18.28-12.15,1.82-3.68,3.36-8.81-2-12.48-4.55-3.12-11.18,2.22-11.18,2.22S35.38,41.35,29,42.39c-5.69.92-7.25,6.28-7.21,10.38C21.83,58.55,28.71,68.65,33,71.64Z"/><path class="cls-9" d="M282.31,107.94l-8.12-2.23c1.46-11-3.07-20.58-11.31-22.84-9-2.47-17.1,2.92-21.43,13.87l-8.06-2.21-21.6,60.07.08,0h0l58.38,16Zm-13.48,5.25a2.39,2.39,0,0,1-.13-.21c0-.08-.07-.17-.11-.25l-.09-.25a2,2,0,0,1-.06-.26,2.38,2.38,0,0,1-.05-.26,2.44,2.44,0,0,1,0-.27,2.61,2.61,0,0,1,0-.28h0a2.63,2.63,0,0,1,.09-.55,2.94,2.94,0,0,1,2.28-2.1c-.05.21-.1.41-.16.62a1.4,1.4,0,1,0,2.7.74c0-.17.09-.33.13-.5a2.9,2.9,0,0,1,.51,3.31c0,.09-.1.16-.14.24l-.15.23c-.05.07-.12.13-.18.2l-.18.19-.21.17a1.7,1.7,0,0,1-.22.15l-.22.13-.26.12-.22.07a1.77,1.77,0,0,1-.31.08,1.46,1.46,0,0,1-.22,0,2.06,2.06,0,0,1-.36,0h-.18a3.53,3.53,0,0,1-.55-.1,3.05,3.05,0,0,1-.53-.2l-.16-.09a3.13,3.13,0,0,1-.3-.2l-.17-.14-.22-.22-.16-.18ZM240,101a.78.78,0,0,0,0,.14h0a1.39,1.39,0,0,0,2.72.6c.05-.18.11-.36.16-.54a2.91,2.91,0,0,1,.79,2.86,2.36,2.36,0,0,1-.21.52h0a1.88,1.88,0,0,1-.14.24l-.14.23-.18.2-.19.19-.2.17-.22.15-.22.13-.27.11-.22.08-.3.08-.22,0a2.17,2.17,0,0,1-.36,0h-.19a3.76,3.76,0,0,1-.55-.1,3,3,0,0,1-.52-.2l-.16-.09a3.28,3.28,0,0,1-.31-.2l-.16-.14a2.39,2.39,0,0,1-.23-.22l-.15-.18-.17-.24-.12-.21a2.72,2.72,0,0,1-.11-.25,1.25,1.25,0,0,1-.09-.25,1.1,1.1,0,0,1-.06-.26,2.38,2.38,0,0,1-.05-.26,2.44,2.44,0,0,1,0-.27,2.62,2.62,0,0,1,0-.28h0a3.53,3.53,0,0,1,.1-.55,2.93,2.93,0,0,1,2.17-2.08C240.14,100.62,240.08,100.81,240,101Zm22.11-15.43c6.65,1.83,10.37,10.07,9.3,19.39l-27.28-7.48C248,88,254.61,83.51,262.14,85.57Z"/><path class="cls-4" d="M282.31,106.82,233.39,93.41l-21.6,60.06,58.46,16ZM240.07,105a2.93,2.93,0,1,1,3.61-2A2.93,2.93,0,0,1,240.07,105Zm30.46,8.35a2.93,2.93,0,1,1,3.6-2A2.93,2.93,0,0,1,270.53,113.34Z"/><g class="cls-10"><polygon class="cls-11" points="233.09 94.49 282.01 107.9 270.17 169.48 270.25 169.5 282.31 106.82 233.39 93.41 211.79 153.47 211.87 153.5 233.09 94.49"/><path class="cls-11" d="M270.23,114.42a2.92,2.92,0,0,0,3.6-2,2.75,2.75,0,0,0,.1-.56,2.93,2.93,0,0,1-5.55-1.52,4.18,4.18,0,0,0-.21.53A2.94,2.94,0,0,0,270.23,114.42Z"/><path class="cls-11" d="M239.77,106.07a2.93,2.93,0,0,0,3.61-2,2.72,2.72,0,0,0,.09-.56,2.93,2.93,0,0,1-5.55-1.52,3.05,3.05,0,0,0-.2.53A2.93,2.93,0,0,0,239.77,106.07Z"/></g><path class="cls-12" d="M271.57,110a1.39,1.39,0,0,1-1-1.72c3-11-.77-21.7-8.45-23.81-8.59-2.35-16,3.84-19.41,16.17a1.4,1.4,0,0,1-2.7-.74c3.78-13.79,12.75-20.9,22.85-18.13,9.33,2.55,13.9,14.53,10.41,27.25A1.39,1.39,0,0,1,271.57,110Z"/><path class="cls-8" d="M262.59,82.83c9.1,2.49,13.67,14,10.64,26.33a.76.76,0,0,0,.06-.16c3.49-12.72-1.08-24.7-10.41-27.25C252.78,79,243.81,86.09,240,99.88a.68.68,0,0,0,0,.14C243.93,86.86,252.72,80.12,262.59,82.83Z"/><circle class="cls-6" cx="249.56" cy="131.18" r="15.3"/><path class="cls-3" d="M216.36,80.14l-1.57-6.55c-.27-1.12-1.41-2-3.29-2.58a16.16,16.16,0,0,0-1.77-.46c-.65-.13-1.35-.24-2.11-.32s-1.56-.16-2.42-.21-1.76-.07-2.7-.08c-1.9,0-4,.07-6.19.22s-4.59.4-7.08.72q-1.86.24-3.81.54l-2,.31c-4,.67-8.16,1.52-12.46,2.55a170.9,170.9,0,0,0-19.56,5.87l-1.69.64c-1.1.42-2.17.86-3.19,1.29-2.05.87-3.93,1.74-5.62,2.61-1.09.56-2.1,1.12-3,1.68l-.79.48a24.69,24.69,0,0,0-3,2.17c-.28.23-.54.47-.77.7-1.39,1.38-2,2.67-1.76,3.79h0l1.57,6.55c1.22,5.12,20.84,4.81,43.8-.69S217.59,85.26,216.36,80.14Z"/><ellipse class="cls-14" cx="173.21" cy="82.43" rx="42.76" ry="9.53" transform="translate(-14.44 42.61) rotate(-13.47)"/><path class="cls-13" d="M133.19,98.93c1.22,5.12,20.84,4.82,43.8-.68S217.59,84.13,216.36,79l-1.57-6.54c1.23,5.12-16.4,13.73-39.36,19.23s-42.58,5.81-43.81.69Z"/><path class="cls-8" d="M171.25,74.25c22.14-5.31,41.16-5.78,43.6-1.22a2.09,2.09,0,0,0-.06-.56c-1.22-5.12-20.84-4.81-43.8.69s-40.6,14.11-39.37,19.23a2.17,2.17,0,0,0,.21.53C131.93,87.75,149.1,79.55,171.25,74.25Z"/><path class="cls-9" d="M139.78,169.57c0-.34-.09-.67-.16-1a9.88,9.88,0,0,0-1-2.61,9.48,9.48,0,0,0-1.06-1.53,8.3,8.3,0,0,0-.64-.69,9.67,9.67,0,0,0-2.31-1.67,9.17,9.17,0,0,0-1.83-.72l-21.63-6.11c5.27,0,12.6-1.48,13.32-3.34a1.2,1.2,0,0,0-.68-1.53,2.79,2.79,0,0,0-.68-.29c-3.53-1-13,2.7-15,3.51-1.79-1.47-10.93-8.86-14.9-10a4.09,4.09,0,0,0-1-.16c-1,0-1.15.53-1.19.76-.09.46-.26,1.41,6.51,5.51,2.07,1.25,4.23,2.44,6.15,3.4L83.1,147.31a9.66,9.66,0,0,0-2.9-.36h-.07a10.13,10.13,0,0,0-2.46.41,9.85,9.85,0,0,0-4.81,3.23c-.2.25-.38.51-.56.78A9.59,9.59,0,0,0,71.1,154l-1.38,4.88a.65.65,0,1,0-.35,1.25L68,165a9.72,9.72,0,0,0,6.71,12l24.21,6.84h0a.65.65,0,0,0,1.25.36h0l24.21,6.84a9.74,9.74,0,0,0,12-6.72l1.37-4.88a.65.65,0,0,0,.36-1.24l1.38-4.89a10,10,0,0,0,.34-1.94A9.42,9.42,0,0,0,139.78,169.57Zm-47-24.74.07,0c2.41.68,7.11,4,10.55,6.67C99.06,149.29,94.24,146.25,92.73,144.83ZM110.66,154c3.88-1.43,9.81-3.29,12.09-2.64a1.58,1.58,0,0,1,.37.15l.07,0C122.32,152.51,115.66,154.09,110.66,154Z"/><rect class="cls-2" x="68.59" y="152.37" width="71.07" height="30.89" rx="8.65" transform="matrix(-0.96, -0.27, 0.27, -0.96, 158.69, 357.62)"/><path class="cls-13" d="M75.09,175.66l49.66,14a9.73,9.73,0,0,0,12-6.72L68.37,163.66A9.72,9.72,0,0,0,75.09,175.66Z"/><path class="cls-4" d="M69.31,158a.63.63,0,0,0,.44.79l33.57,9.49-4,14.24a.64.64,0,0,0,.45.8.63.63,0,0,0,.79-.44l4-14.25,33.57,9.49a.65.65,0,0,0,.8-.45.63.63,0,0,0-.45-.79l-33.57-9.49,3.87-13.69c4.95.73,15.19-1,16.06-3.16a1.21,1.21,0,0,0-.68-1.53,2.7,2.7,0,0,0-.69-.29c-3.53-1-13,2.7-15,3.51-1.8-1.47-10.93-8.86-14.9-10a4.09,4.09,0,0,0-1-.16c-1,0-1.16.53-1.2.76-.08.45-.25,1.41,6.52,5.51a73.76,73.76,0,0,0,9.63,5L103.68,167,70.1,157.53A.63.63,0,0,0,69.31,158Zm34.43-7.84c-4.29-2.23-9.11-5.27-10.62-6.69l.07,0C95.59,144.15,100.29,147.51,103.74,150.14Zm7.31,2.45c3.88-1.43,9.81-3.29,12.08-2.65a1.63,1.63,0,0,1,.37.16l.08,0C122.71,151.13,116,152.71,111.05,152.59Z"/><rect class="cls-9" x="148.62" y="119" width="77.78" height="64.42" transform="translate(-38.37 67.53) rotate(-18.55)"/><rect class="cls-7" x="147.96" y="117.03" width="77.78" height="64.42" transform="translate(-37.78 67.21) rotate(-18.55)"/><rect class="cls-8" x="137.89" y="118.68" width="77.78" height="1.12" transform="translate(-28.75 62.45) rotate(-18.55)"/><rect class="cls-6" x="142.04" y="129.29" width="77.78" height="4.66" transform="translate(-32.48 64.41) rotate(-18.55)"/><rect class="cls-6" x="144.01" y="135.14" width="77.78" height="4.66" transform="translate(-34.24 65.34) rotate(-18.55)"/><circle class="cls-6" cx="170.82" cy="174.03" r="8.81"/><rect class="cls-3" x="133.63" y="209.06" width="68.4" height="53.59" transform="translate(31.32 -19.41) rotate(7.3)"/><rect class="cls-4" x="133.63" y="207.94" width="68.4" height="53.59" transform="translate(31.18 -19.42) rotate(7.3)"/><rect class="cls-6" x="141.39" y="210.83" width="13.57" height="10.98" transform="translate(28.68 -17.07) rotate(7.3)"/><rect class="cls-6" x="136.68" y="253.01" width="38.12" height="1.7" transform="translate(33.51 -17.73) rotate(7.3)"/><rect class="cls-6" x="137.09" y="249.83" width="38.12" height="1.7" transform="translate(33.11 -17.81) rotate(7.3)"/><rect class="cls-6" x="137.49" y="246.65" width="38.12" height="1.7" transform="translate(32.71 -17.88) rotate(7.3)"/><rect class="cls-2" x="186.31" y="229.86" width="15.98" height="9.01" transform="translate(31.35 -22.79) rotate(7.3)"/><rect class="cls-13" x="186.02" y="234.35" width="15.98" height="4.51" transform="translate(31.63 -22.73) rotate(7.3)"/><rect class="cls-8" x="136.96" y="208.15" width="68.4" height="1.12" transform="translate(27.9 -20.05) rotate(7.3)"/><rect class="cls-9" x="202.78" y="213.24" width="100.59" height="29.72" transform="translate(-86.65 202.41) rotate(-37.7)"/><rect class="cls-2" x="201.91" y="212.12" width="100.59" height="29.72" transform="translate(-86.15 201.65) rotate(-37.7)"/><rect class="cls-13" x="206.46" y="225.43" width="100.59" height="14.86" transform="translate(-88.8 205.65) rotate(-37.7)"/><rect class="cls-5" x="213.95" y="252.67" width="10.59" height="1.58" transform="translate(-109.23 187.01) rotate(-37.7)"/><rect class="cls-4" x="212.98" y="251.42" width="10.59" height="1.58" transform="translate(-108.67 186.16) rotate(-37.7)"/><rect class="cls-5" x="280.86" y="200.94" width="10.59" height="1.58" transform="translate(-63.62 217.14) rotate(-37.7)"/><rect class="cls-4" x="279.9" y="199.7" width="10.59" height="1.58" transform="translate(-63.06 216.29) rotate(-37.7)"/><circle class="cls-7" cx="213.76" cy="246.62" r="4.33"/><rect class="cls-7" x="216.98" y="233.41" width="16.53" height="8.67" transform="translate(-98.36 187.41) rotate(-37.7)"/><rect class="cls-8" x="193.17" y="215.1" width="100.59" height="1.12" transform="translate(-81.06 193.93) rotate(-37.7)"/><path class="cls-15" d="M246.79,266.17,112.88,253.25a8.29,8.29,0,0,0-2.55.17l-15.56-13a4.44,4.44,0,0,0-2.86-1H81.42a8.47,8.47,0,0,0-1.84-2.14,8.6,8.6,0,1,0,1.11,12.11,9.26,9.26,0,0,0,.73-1h7.26a4.44,4.44,0,0,1,2.86,1l12.33,10.27a9.59,9.59,0,0,0-.24,4.35l11.53,66.46a8.78,8.78,0,0,0,8.47,7.48h10.6L123.79,351.2c-2.15,2.51-1.21,7.43,4,7.43H233.22a3.3,3.3,0,0,0,0-6.6H135.34c-1.9,0-3.2-1.24-1.51-3.6l7.6-10.48h88a8.67,8.67,0,0,0,8.18-6.28l16.59-53.53C255.93,272.55,252.31,266.71,246.79,266.17ZM117.62,280.61l-2.8-16.17,2.8.27ZM130.82,327h-5.15l-1.45-8.36v-6.23h6.6Zm0-21.19h-6.6V290.35h6.6Zm0-22.06h-6.6v-18.4l6.6.63ZM144,327h-6.6V312.41H144Zm0-21.19h-6.6V290.35H144Zm0-22.06h-6.6V266.62l6.6.64ZM157.22,327h-6.6V312.41h6.6Zm0-21.19h-6.6V290.35h6.6Zm0-22.06h-6.6V267.89l6.6.64ZM170.42,327h-6.6V312.41h6.6Zm0-21.19h-6.6V290.35h6.6Zm0-22.06h-6.6V269.17l6.6.63ZM183.62,327H177V312.41h6.6Zm0-21.19H177V290.35h6.6Zm0-22.06H177V270.44l6.6.64ZM196.82,327h-6.6V312.41h6.6Zm0-21.19h-6.6V290.35h6.6Zm0-22.06h-6.6v-12l6.6.64ZM210,327h-6.59V312.41H210Zm0-21.19h-6.59V290.35H210Zm0-22.06h-6.59V273l6.59.63ZM223.21,327h-6.6V312.41h6.6Zm0-21.19h-6.6V290.35h6.6Zm0-22.06h-6.6v-9.49l6.6.64Zm6.6,36.09v-7.43h2.31Zm4.35-14h-4.35V290.35H239ZM241,283.75H229.81v-8.21l13.33,1.28Z"/><path class="cls-15" d="M141.57,360.64a13,13,0,1,0,13,13A13,13,0,0,0,141.57,360.64Zm0,17.89a4.88,4.88,0,1,1,4.89-4.88A4.88,4.88,0,0,1,141.57,378.53Z"/><path class="cls-15" d="M214.35,360.64a13,13,0,1,0,13,13A13,13,0,0,0,214.35,360.64Zm0,17.89a4.88,4.88,0,1,1,4.88-4.88A4.87,4.87,0,0,1,214.35,378.53Z"/><path class="cls-12" d="M246.79,265,112.88,252.07a8,8,0,0,0-2.55.17l-15.56-13a4.44,4.44,0,0,0-2.86-1H81.42a8.57,8.57,0,0,0-14-1,8.6,8.6,0,1,0,13.22,11,10.16,10.16,0,0,0,.73-1h7.26a4.44,4.44,0,0,1,2.86,1l12.33,10.27a9.59,9.59,0,0,0-.24,4.35l11.53,66.45a8.78,8.78,0,0,0,8.47,7.49h10.6L123.79,350c-2.15,2.51-1.21,7.44,4,7.44H233.22a3.3,3.3,0,1,0,0-6.6H135.34c-1.9,0-3.2-1.24-1.51-3.6l7.6-10.48h88a8.66,8.66,0,0,0,8.18-6.29L254.2,277C255.93,271.37,252.31,265.52,246.79,265ZM117.62,279.42l-2.8-16.16,2.8.27Zm13.2,46.4h-5.15l-1.45-8.37v-6.23h6.6Zm0-21.2h-6.6V289.16h6.6Zm0-22.06h-6.6v-18.4l6.6.64ZM144,325.82h-6.6v-14.6H144Zm0-21.2h-6.6V289.16H144Zm0-22.06h-6.6V265.44l6.6.63Zm13.2,43.26h-6.6v-14.6h6.6Zm0-21.2h-6.6V289.16h6.6Zm0-22.06h-6.6V266.71l6.6.64Zm13.2,43.26h-6.6v-14.6h6.6Zm0-21.2h-6.6V289.16h6.6Zm0-22.06h-6.6V268l6.6.64Zm13.2,43.26H177v-14.6h6.6Zm0-21.2H177V289.16h6.6Zm0-22.06H177v-13.3l6.6.64Zm13.2,43.26h-6.6v-14.6h6.6Zm0-21.2h-6.6V289.16h6.6Zm0-22.06h-6.6v-12l6.6.64ZM210,325.82h-6.59v-14.6H210Zm0-21.2h-6.59V289.16H210Zm0-22.06h-6.59V271.81l6.59.63Zm13.2,43.26h-6.6v-14.6h6.6Zm0-21.2h-6.6V289.16h6.6Zm0-22.06h-6.6v-9.48l6.6.64Zm6.6,36.1v-7.44h2.31Zm4.35-14h-4.35V289.16H239ZM241,282.56H229.81v-8.21l13.33,1.29Z"/><path class="cls-12" d="M141.57,359.46a13,13,0,1,0,13,13A13,13,0,0,0,141.57,359.46Zm0,17.89a4.88,4.88,0,1,1,4.89-4.88A4.88,4.88,0,0,1,141.57,377.35Z"/><path class="cls-12" d="M214.35,359.46a13,13,0,1,0,13,13A13,13,0,0,0,214.35,359.46Zm0,17.89a4.88,4.88,0,1,1,4.88-4.88A4.87,4.87,0,0,1,214.35,377.35Z"/><g class="cls-10"><rect class="cls-11" x="163.82" y="304.62" width="6.6" height="1.18"/><rect class="cls-11" x="150.62" y="325.82" width="6.6" height="1.18"/><rect class="cls-11" x="163.82" y="282.56" width="6.6" height="1.18"/><rect class="cls-11" x="163.82" y="325.82" width="6.6" height="1.18"/><rect class="cls-11" x="177.02" y="282.56" width="6.6" height="1.18"/><rect class="cls-11" x="177.02" y="325.82" width="6.6" height="1.18"/><rect class="cls-11" x="177.02" y="304.62" width="6.6" height="1.18"/><path class="cls-11" d="M103.64,259.47a10.1,10.1,0,0,0-.14,2.28,9.63,9.63,0,0,1,.37-2.09Z"/><rect class="cls-11" x="190.22" y="282.56" width="6.6" height="1.18"/><path class="cls-11" d="M134.23,336.77,123.79,350a4.64,4.64,0,0,0-1,3.58,4.48,4.48,0,0,1,1-2.39l11.38-14.43Z"/><path class="cls-11" d="M67.47,238.39a8.6,8.6,0,0,1,12.11-1.1,8.47,8.47,0,0,1,1.84,2.14H91.91a4.44,4.44,0,0,1,2.86,1l15.56,13a8.29,8.29,0,0,1,2.55-.17l133.91,12.92a8.92,8.92,0,0,1,7.81,8.54,9,9,0,0,0-7.81-9.72L112.88,252.07a8,8,0,0,0-2.55.17l-15.56-13a4.44,4.44,0,0,0-2.86-1H81.42a8.57,8.57,0,0,0-14-1,8.55,8.55,0,0,0-2,6.11A8.63,8.63,0,0,1,67.47,238.39Z"/><rect class="cls-11" x="124.22" y="282.56" width="6.6" height="1.18"/><rect class="cls-11" x="150.62" y="304.62" width="6.6" height="1.18"/><rect class="cls-11" x="150.62" y="282.56" width="6.6" height="1.18"/><rect class="cls-11" x="124.22" y="304.62" width="6.6" height="1.18"/><polygon class="cls-11" points="125.67 327 130.82 327 130.82 325.82 125.67 325.82 124.22 317.45 124.22 318.64 125.67 327"/><rect class="cls-11" x="190.22" y="325.82" width="6.6" height="1.18"/><polygon class="cls-11" points="234.16 305.81 238.95 290.35 238.58 290.35 234.16 304.62 229.81 304.62 229.81 305.81 234.16 305.81"/><polygon class="cls-11" points="232.12 312.41 231.75 312.41 229.81 318.66 229.81 319.84 232.12 312.41"/><rect class="cls-11" x="137.42" y="304.62" width="6.6" height="1.18"/><rect class="cls-11" x="137.42" y="282.56" width="6.6" height="1.18"/><path class="cls-11" d="M233.22,350.85H135.34a2.18,2.18,0,0,1-2.19-1.11c-.06.67.91,2.29,3.71,2.29h96.36a3.31,3.31,0,0,1,3.25,2.71,3.81,3.81,0,0,0,.05-.59A3.3,3.3,0,0,0,233.22,350.85Z"/><rect class="cls-11" x="137.42" y="325.82" width="6.6" height="1.18"/><rect class="cls-11" x="203.42" y="325.82" width="6.6" height="1.18"/><polygon class="cls-11" points="241 283.75 243.14 276.82 242.78 276.79 241 282.56 229.81 282.56 229.81 283.75 241 283.75"/><rect class="cls-11" x="203.42" y="282.56" width="6.6" height="1.18"/><rect class="cls-11" x="190.22" y="304.62" width="6.6" height="1.18"/><rect class="cls-11" x="203.42" y="304.62" width="6.6" height="1.18"/><rect class="cls-11" x="216.61" y="325.82" width="6.6" height="1.18"/><rect class="cls-11" x="216.61" y="304.62" width="6.6" height="1.18"/><rect class="cls-11" x="216.61" y="282.56" width="6.6" height="1.18"/></g><g class="cls-10"><path class="cls-11" d="M141.57,360.64a13,13,0,0,1,13,12.42c0-.2,0-.39,0-.59a13,13,0,0,0-26,0c0,.2,0,.39,0,.59A13,13,0,0,1,141.57,360.64Z"/><path class="cls-11" d="M141.57,378.53a4.88,4.88,0,0,0,4.89-4.88,5.85,5.85,0,0,0,0-.59,4.88,4.88,0,0,1-9.69,0,5.85,5.85,0,0,0,0,.59A4.88,4.88,0,0,0,141.57,378.53Z"/></g><g class="cls-10"><path class="cls-11" d="M214.35,360.64a13,13,0,0,1,13,12.42c0-.2,0-.39,0-.59a13,13,0,0,0-26,0c0,.2,0,.39,0,.59A13,13,0,0,1,214.35,360.64Z"/><path class="cls-11" d="M214.35,378.53a4.87,4.87,0,0,0,4.88-4.88,5.85,5.85,0,0,0,0-.59,4.88,4.88,0,0,1-9.68,0,3.9,3.9,0,0,0,0,.59A4.87,4.87,0,0,0,214.35,378.53Z"/></g><rect class="cls-12" x="190.22" y="287.98" width="6.6" height="1.18"/><rect class="cls-12" x="190.22" y="310.04" width="6.6" height="1.18"/><polygon class="cls-12" points="190.22 269.35 190.22 270.53 196.82 271.17 196.82 269.99 190.22 269.35"/><polygon class="cls-12" points="177.02 268.08 177.02 269.26 183.62 269.89 183.62 268.71 177.02 268.08"/><rect class="cls-12" x="177.02" y="310.04" width="6.6" height="1.18"/><polygon class="cls-12" points="203.41 270.62 203.41 271.81 210.01 272.44 210.01 271.26 203.41 270.62"/><rect class="cls-12" x="177.02" y="287.98" width="6.6" height="1.18"/><polygon class="cls-12" points="216.61 271.9 216.61 273.08 223.21 273.72 223.21 272.53 216.61 271.9"/><rect class="cls-12" x="216.61" y="310.04" width="6.6" height="1.18"/><polygon class="cls-12" points="229.81 273.17 229.81 274.35 242.78 275.61 243.14 274.46 229.81 273.17"/><polygon class="cls-12" points="229.81 287.98 229.81 289.16 238.58 289.16 238.95 287.98 229.81 287.98"/><rect class="cls-12" x="203.42" y="310.04" width="6.6" height="1.18"/><rect class="cls-12" x="203.42" y="287.98" width="6.6" height="1.18"/><rect class="cls-12" x="163.82" y="310.04" width="6.6" height="1.18"/><rect class="cls-12" x="216.61" y="287.98" width="6.6" height="1.18"/><polygon class="cls-12" points="229.81 310.04 229.81 311.22 231.75 311.22 232.12 310.04 229.81 310.04"/><path class="cls-12" d="M103.87,257.3,91.54,247a4.45,4.45,0,0,0-2.86-1H81.42a9.26,9.26,0,0,1-.73,1,8.59,8.59,0,0,1-15.18-4.9,8.59,8.59,0,0,0,15.18,6.08,10.16,10.16,0,0,0,.73-1h7.26a4.44,4.44,0,0,1,2.86,1l12.1,10.08A7.93,7.93,0,0,1,103.87,257.3Z"/><polygon class="cls-12" points="114.82 262.07 115.03 263.28 117.62 263.53 117.62 262.34 114.82 262.07"/><polygon class="cls-12" points="124.22 262.98 124.22 264.16 130.82 264.8 130.82 263.62 124.22 262.98"/><rect class="cls-12" x="124.22" y="310.04" width="6.6" height="1.18"/><rect class="cls-12" x="124.22" y="287.98" width="6.6" height="1.18"/><path class="cls-12" d="M254.2,275.77,237.61,329.3a8.68,8.68,0,0,1-8.18,6.29h-88L134.58,345a6.83,6.83,0,0,0-1.43,3.54,4.23,4.23,0,0,1,.68-1.31l7.6-10.48h88a8.66,8.66,0,0,0,8.18-6.29L254.2,277a9.6,9.6,0,0,0,.4-3.42A9.35,9.35,0,0,1,254.2,275.77Z"/><path class="cls-12" d="M233.22,356.27H127.8c-3.2,0-4.72-1-5-2.68.09,1.23,1.22,3.86,5,3.86H233.22a3.3,3.3,0,0,0,3.3-3.3,3.81,3.81,0,0,0-.05-.59A3.31,3.31,0,0,1,233.22,356.27Z"/><path class="cls-12" d="M133.3,336.77l.93-1.18h-10.6a8.78,8.78,0,0,1-8.47-7.49l-11.53-66.45c-.06-.36-.1-.72-.13-1.08a10.23,10.23,0,0,0,.13,2.26l11.53,66.45a8.78,8.78,0,0,0,8.47,7.49Z"/><polygon class="cls-12" points="163.82 266.8 163.82 267.98 170.42 268.62 170.42 267.44 163.82 266.8"/><rect class="cls-12" x="150.62" y="287.98" width="6.6" height="1.18"/><rect class="cls-12" x="150.62" y="310.04" width="6.6" height="1.18"/><rect class="cls-12" x="163.82" y="287.98" width="6.6" height="1.18"/><polygon class="cls-12" points="137.42 264.25 137.42 265.44 144.02 266.07 144.02 264.89 137.42 264.25"/><rect class="cls-12" x="137.42" y="287.98" width="6.6" height="1.18"/><polygon class="cls-12" points="150.62 265.53 150.62 266.71 157.22 267.35 157.22 266.17 150.62 265.53"/><rect class="cls-12" x="137.42" y="310.04" width="6.6" height="1.18"/><path class="cls-12" d="M141.57,366.41a4.88,4.88,0,0,0-4.88,4.88,5.85,5.85,0,0,0,0,.59,4.88,4.88,0,0,1,9.69,0,5.85,5.85,0,0,0,0-.59A4.88,4.88,0,0,0,141.57,366.41Z"/><path class="cls-12" d="M141.57,384.3a13,13,0,0,1-13-12.42c0,.19,0,.39,0,.59a13,13,0,0,0,26,0c0-.2,0-.4,0-.59A13,13,0,0,1,141.57,384.3Z"/><path class="cls-12" d="M214.35,366.41a4.87,4.87,0,0,0-4.88,4.88,3.9,3.9,0,0,0,0,.59,4.88,4.88,0,0,1,9.68,0,5.85,5.85,0,0,0,0-.59A4.87,4.87,0,0,0,214.35,366.41Z"/><path class="cls-12" d="M214.35,384.3a13,13,0,0,1-13-12.42c0,.19,0,.39,0,.59a13,13,0,0,0,26,0c0-.2,0-.4,0-.59A13,13,0,0,1,214.35,384.3Z"/><circle class="cls-3" cx="247.05" cy="193.58" r="5.16"/><circle class="cls-2" cx="247.05" cy="192.46" r="5.16"/><path class="cls-8" d="M247.05,188.42a5.16,5.16,0,0,1,5.13,4.6,5.25,5.25,0,0,0,0-.56,5.16,5.16,0,0,0-10.32,0,5.25,5.25,0,0,0,0,.56A5.16,5.16,0,0,1,247.05,188.42Z"/><circle class="cls-3" cx="328.97" cy="127.01" r="5.16"/><circle class="cls-2" cx="328.97" cy="125.89" r="5.16"/><path class="cls-8" d="M329,121.85a5.17,5.17,0,0,1,5.13,4.6,5.16,5.16,0,1,0-10.26,0A5.17,5.17,0,0,1,329,121.85Z"/><circle class="cls-3" cx="126.81" cy="119.8" r="5.16"/><circle class="cls-2" cx="126.81" cy="118.68" r="5.16"/><path class="cls-8" d="M126.81,114.64a5.16,5.16,0,0,1,5.13,4.6,5.25,5.25,0,0,0,0-.56,5.16,5.16,0,1,0-10.32,0,5.25,5.25,0,0,0,0,.56A5.16,5.16,0,0,1,126.81,114.64Z"/><circle class="cls-3" cx="296.61" cy="142.63" r="5.16"/><circle class="cls-7" cx="296.61" cy="141.51" r="5.16"/><path class="cls-8" d="M296.61,137.47a5.16,5.16,0,0,1,5.13,4.6,5.09,5.09,0,0,0,0-.56,5.17,5.17,0,0,0-10.33,0,5.09,5.09,0,0,0,0,.56A5.16,5.16,0,0,1,296.61,137.47Z"/><circle class="cls-3" cx="112.55" cy="222.51" r="5.16"/><circle class="cls-7" cx="112.55" cy="221.38" r="5.16"/><path class="cls-8" d="M112.55,217.35a5.16,5.16,0,0,1,5.13,4.6,5.46,5.46,0,0,0,0-.57,5.17,5.17,0,0,0-10.33,0,5.46,5.46,0,0,0,0,.57A5.14,5.14,0,0,1,112.55,217.35Z"/><circle class="cls-3" cx="20.22" cy="100.9" r="5.16"/><circle class="cls-7" cx="20.22" cy="99.78" r="5.16"/><path class="cls-8" d="M20.22,95.74a5.16,5.16,0,0,1,5.13,4.6,5.4,5.4,0,0,0,0-.56,5.16,5.16,0,1,0-10.32,0,5.4,5.4,0,0,0,0,.56A5.16,5.16,0,0,1,20.22,95.74Z"/><circle class="cls-3" cx="121.65" cy="82.83" r="5.16"/><circle class="cls-4" cx="121.65" cy="81.7" r="5.16"/><path class="cls-8" d="M121.65,77.66a5.17,5.17,0,0,1,5.13,4.61,5.44,5.44,0,0,0,0-.57,5.16,5.16,0,1,0-10.32,0,5.44,5.44,0,0,0,0,.57A5.17,5.17,0,0,1,121.65,77.66Z"/><circle class="cls-3" cx="57.31" cy="192.01" r="5.16"/><circle class="cls-4" cx="57.31" cy="190.89" r="5.16"/><path class="cls-8" d="M57.31,186.85a5.16,5.16,0,0,1,5.13,4.6,5.25,5.25,0,0,0,0-.56,5.16,5.16,0,1,0-10.32,0,5.25,5.25,0,0,0,0,.56A5.16,5.16,0,0,1,57.31,186.85Z"/><circle class="cls-3" cx="308.31" cy="175.79" r="5.16"/><circle class="cls-4" cx="308.31" cy="174.67" r="5.16"/><path class="cls-8" d="M308.31,170.63a5.16,5.16,0,0,1,5.13,4.6,5.25,5.25,0,0,0,0-.56,5.16,5.16,0,1,0-10.32,0,5.25,5.25,0,0,0,0,.56A5.16,5.16,0,0,1,308.31,170.63Z"/></g></g></g></svg>