<svg xmlns="http://www.w3.org/2000/svg" viewBox="0 0 141 345"><defs><style>.cls-1{fill:#fff;}.cls-2{fill:#555b5e;}.cls-3{fill:#565b5e;}.cls-4{fill:#272425;}</style></defs><title>Recurso 3</title><g id="Capa_2" data-name="Capa 2"><g id="Capa_2-2" data-name="Capa 2"><rect class="cls-1" width="141" height="345"/><g id="Layer_1" data-name="Layer 1"><g id="Invoice"><path class="cls-2" d="M35.59,4.25,34.26,7.44a.86.86,0,0,0,.46,1.13l2.79,1.16-.34.8a.87.87,0,0,0,.47,1.13h0l.8.33a1.29,1.29,0,0,0,1.69-.69l1.66-4a1.28,1.28,0,0,0-.69-1.69l-.4-.17-.4-.17-3.58-1.5A.87.87,0,0,0,35.59,4.25Zm3.18,6.94-.8-.33L39.3,7.68l.8.33a1.34,1.34,0,0,0,.43.1L39.33,11A.42.42,0,0,1,38.77,11.19Zm2-4.77A.44.44,0,0,1,41,7a.45.45,0,0,1-.57.23l-.79-.34a.87.87,0,0,0-1.13.47l-.67,1.59L35.05,7.77l1.33-3.18L40,6.09l.4.16Z"/><path class="cls-2" d="M36.45,5.55l-.67,1.59a.45.45,0,0,0,.24.57.43.43,0,0,0,.56-.24l.67-1.59A.43.43,0,0,0,37,5.32.43.43,0,0,0,36.45,5.55Z"/><path class="cls-2" d="M37.64,6.05,37,7.64a.44.44,0,0,0,.23.57A.45.45,0,0,0,37.78,8l.66-1.59a.43.43,0,0,0-.23-.56A.44.44,0,0,0,37.64,6.05Z"/></g><g id="Receipt"><path class="cls-2" d="M66.44,7.94l-1.69,4a.85.85,0,0,0,.45,1.09l5.21,2.18a.45.45,0,0,0,.39,0,.42.42,0,0,0,.2-.34l.09-1.21.81-.92a.39.39,0,0,0,.1-.25l.09-1.22.81-.92a.47.47,0,0,0,.07-.12A.46.46,0,0,0,73,10a.42.42,0,0,0-.25-.3L67.53,7.5A.83.83,0,0,0,66.44,7.94Zm5.41,2.3-.5.58a.47.47,0,0,0-.11.25l-.09,1.22-.8.92a.26.26,0,0,0-.07.11.74.74,0,0,0,0,.14l0,.76-4.63-1.93,1.67-4Z"/><circle class="cls-2" cx="68.09" cy="9.6" r="0.43" transform="translate(32.95 68.71) rotate(-67.3)"/><path class="cls-2" d="M67.49,12.16,68,11a.43.43,0,0,0-.24-.56.43.43,0,0,0-.56.23l-.5,1.19a.43.43,0,1,0,.8.34Z"/><circle class="cls-2" cx="69.28" cy="10.1" r="0.43" transform="translate(33.22 70.12) rotate(-67.3)"/><path class="cls-2" d="M68.68,12.66l.5-1.2A.43.43,0,0,0,69,10.9a.44.44,0,0,0-.57.23l-.49,1.19a.43.43,0,1,0,.79.34Z"/></g><g id="Tag"><path class="cls-2" d="M15.22,195.11l-2.51-.63a.4.4,0,0,0-.32,0l-3.67,2.19a.43.43,0,0,0-.15.59L10.75,201a.45.45,0,0,0,.59.15L15,198.94a.45.45,0,0,0,.2-.27l.64-2.51A.88.88,0,0,0,15.22,195.11Zm-.8,3.18-3.15,1.87-1.74-2.93,3.14-1.87L15,196Z"/><circle class="cls-2" cx="13.44" cy="196.89" r="0.43" transform="translate(-180.71 161.51) rotate(-75.77)"/></g><path id="Bag" class="cls-2" d="M113.2,175.61l-.42-.1a1.72,1.72,0,1,0-3.34-.85l-.42-.11a.86.86,0,0,0-1,.63l-.85,3.35a.86.86,0,0,0,.63,1l4.18,1.06a.85.85,0,0,0,1-.62l.85-3.35A.86.86,0,0,0,113.2,175.61Zm-1.88-1.37a.88.88,0,0,1,.63,1l-1.68-.42A.88.88,0,0,1,111.32,174.24Zm-3.36,4.5.85-3.35.42.1-.11.42a.43.43,0,1,0,.84.22l.1-.42,1.67.42-.1.42a.43.43,0,1,0,.83.21l.11-.42.42.11-.85,3.35Z"/><g id="Box"><path class="cls-2" d="M110,119.94l-4.19-.09a.67.67,0,0,0-.72.62l0,1a.34.34,0,0,0,.34.33l-.05,2.57a.63.63,0,0,0,.66.62l3.55.08a.65.65,0,0,0,.69-.59l0-2.57a.34.34,0,0,0,.36-.31l0-1A.67.67,0,0,0,110,119.94Zm-4.21.54,4.2.1v.63l-4.2-.09Zm3.77,3.91-3.5-.08,0-2.55,3.5.08Z"/><path class="cls-2" d="M107.16,122.74l1.4,0a.32.32,0,1,0,0-.63l-1.4,0a.33.33,0,0,0-.36.31A.33.33,0,0,0,107.16,122.74Z"/></g><g id="Cart"><ellipse class="cls-2" cx="70.75" cy="151.81" rx="0.38" ry="0.41" transform="translate(-94.94 127.36) rotate(-56.62)"/><ellipse class="cls-2" cx="72.36" cy="152.87" rx="0.38" ry="0.41" transform="translate(-95.1 129.18) rotate(-56.62)"/><path class="cls-2" d="M73.6,151.74a.25.25,0,0,0,.31,0l1.29-1a.23.23,0,0,0,.09-.21.32.32,0,0,0-.13-.21L72,148.26a.26.26,0,0,0-.37.05.25.25,0,0,0,.09.36l.23.15-1,1.47a.79.79,0,0,0,.27,1.08l1.84,1.21a.28.28,0,0,0,.37-.06.27.27,0,0,0-.09-.36L71.49,151a.26.26,0,0,1-.09-.36l.13-.21Zm1-1.16-.86.64L71.81,150l.55-.83Z"/></g><g id="Box-2" data-name="Box"><path class="cls-2" d="M89.77,208.45l-3.28-.39a.54.54,0,0,0-.61.43l-.08.75a.26.26,0,0,0,.24.28l-.24,2a.5.5,0,0,0,.47.54l2.77.33a.52.52,0,0,0,.59-.42l.23-2a.26.26,0,0,0,.3-.22l.09-.74A.52.52,0,0,0,89.77,208.45Zm-3.34.11,3.28.38-.06.5-3.28-.39Zm2.65,3.33-2.73-.32.24-2,2.73.33Z"/><path class="cls-2" d="M87.32,210.42l1.09.13a.26.26,0,0,0,.3-.21.25.25,0,0,0-.24-.28l-1.09-.13a.25.25,0,1,0-.06.49Z"/></g><g id="Invoice-2" data-name="Invoice"><path class="cls-2" d="M127.28,5.23,123.6,6.35A1,1,0,0,0,123,7.54l1,3.2L123,11a1,1,0,0,0-.64,1.19h0l.28.92a1.43,1.43,0,0,0,1.8.94l4.6-1.4a1.45,1.45,0,0,0,1-1.79l-.14-.46-.14-.45-1.26-4.11A1,1,0,0,0,127.28,5.23Zm-3.71,7.61-.28-.91L127,10.81l.28.91a1.37,1.37,0,0,0,.23.43l-3.31,1A.48.48,0,0,1,123.57,12.84Zm5.52-1.68a.48.48,0,0,1-.32.6.49.49,0,0,1-.6-.32l-.27-.91a1,1,0,0,0-1.2-.63l-1.84.56-1-3.2,3.68-1.12,1.26,4.11.14.45Z"/><path class="cls-2" d="M126.78,6.88l-1.84.56a.48.48,0,1,0,.28.91l1.84-.56a.48.48,0,0,0,.32-.6A.47.47,0,0,0,126.78,6.88Z"/><path class="cls-2" d="M127.2,8.25l-1.84.56a.46.46,0,0,0-.32.59.47.47,0,0,0,.6.32l1.84-.56a.48.48,0,0,0,.32-.6A.48.48,0,0,0,127.2,8.25Z"/></g><path id="Card" class="cls-2" d="M42.41,335.25l-2.76.84-2.76.84a1,1,0,0,0-.65,1.2l1.4,4.56a1,1,0,0,0,1.2.63l2.76-.84,2.76-.84a1,1,0,0,0,.64-1.2l-1.39-4.56A1,1,0,0,0,42.41,335.25Zm1.67,5.48-2.76.84-2.76.84-.84-2.74,2.76-.84,2.77-.84ZM43,337.07l-2.76.85-2.77.84-.27-.91,2.76-.85,2.76-.84Z"/><g id="Receipt-2" data-name="Receipt"><path class="cls-2" d="M30.16,103.79l-3.5-.63a.64.64,0,0,0-.77.48l-.74,4.09a.3.3,0,0,0,.1.28.34.34,0,0,0,.3.1l1-.11.88.45a.4.4,0,0,0,.22,0l1-.12.87.45.11,0a.49.49,0,0,0,.21,0,.33.33,0,0,0,.19-.23l.74-4.1A.65.65,0,0,0,30.16,103.79Zm-.8,4.26-.55-.28a.31.31,0,0,0-.21,0l-1,.11-.87-.45a.45.45,0,0,0-.11,0h-.11l-.61.07.66-3.63,3.44.62Z"/><ellipse class="cls-2" cx="29.16" cy="105.23" rx="0.32" ry="0.35" transform="translate(-79.58 115.15) rotate(-79.72)"/><path class="cls-2" d="M27,105.17l1,.18a.32.32,0,0,0,.4-.25.33.33,0,0,0-.29-.37l-1-.19a.34.34,0,0,0-.4.25A.35.35,0,0,0,27,105.17Z"/><ellipse class="cls-2" cx="28.99" cy="106.17" rx="0.32" ry="0.35" transform="translate(-80.64 115.75) rotate(-79.72)"/><path class="cls-2" d="M26.87,106.1l1,.19a.32.32,0,1,0,.11-.62l-1-.19a.32.32,0,1,0-.11.62Z"/></g><path id="Delivery" class="cls-3" d="M109.58,104.53l-.94-1.57a.41.41,0,0,0-.26-.2l-.84-.21.11-.42a.86.86,0,0,0-.62-1l-2.51-.64a.88.88,0,0,0-1,.63l-.85,3.35a.86.86,0,0,0,.62,1,.87.87,0,0,0,1.68.42l1.67.43a.85.85,0,0,0,.62,1,173.76,173.76,0,0,0,2.1-1.25l.32-1.25A.48.48,0,0,0,109.58,104.53Zm-6.12.1.84-3.35,2.51.64-.85,3.35Zm5,1.27-1.67-.42.53-2.09.66.16.76,1.27Z"/><g id="Unlocked"><path class="cls-2" d="M133.12,237.78l-2.51-.64.21-.83a.88.88,0,0,1,1.05-.63.89.89,0,0,1,.65.76.43.43,0,0,0,.47.39.44.44,0,0,0,.39-.47,1.73,1.73,0,0,0-3.39-.26l-.22.83a.86.86,0,0,0-1,.63l-.64,2.51a.86.86,0,0,0,.62,1.05l3.35.85a.86.86,0,0,0,1-.63l.64-2.51A.86.86,0,0,0,133.12,237.78Zm-4.2,2.5.64-2.51,3.35.85-.64,2.51Z"/><circle class="cls-2" cx="130.92" cy="239.45" r="0.43" transform="translate(-133.37 307.49) rotate(-75.77)"/></g><g id="Tag-2" data-name="Tag"><path class="cls-2" d="M132.46,311.23l-2.51-.64a.44.44,0,0,0-.32.05L126,312.83a.43.43,0,0,0-.15.59l2.18,3.67a.42.42,0,0,0,.59.15l3.67-2.19a.41.41,0,0,0,.2-.26l.63-2.51A.86.86,0,0,0,132.46,311.23Zm-.8,3.17-3.15,1.88-1.74-2.93,3.14-1.88,2.34.6Z"/><circle class="cls-2" cx="130.68" cy="313" r="0.43" transform="translate(-204.85 362.73) rotate(-75.77)"/></g><g id="Shop"><path class="cls-2" d="M17.46,269.18a.44.44,0,0,0-.53.31l-.42,1.68-.84-.22.21-.83a1.29,1.29,0,1,0-2.5-.64l-.22.84-.83-.21.42-1.68a.43.43,0,0,0-.83-.21l-.53,2.09a.44.44,0,0,0,.31.53l5,1.27a.44.44,0,0,0,.53-.31l.53-2.1A.43.43,0,0,0,17.46,269.18Zm-3.25.51a.44.44,0,0,1,.53-.31.43.43,0,0,1,.31.53l-.21.83-.84-.21Z"/><path class="cls-2" d="M18.56,266.8l-.67-1.11a1.28,1.28,0,0,0-.73-.6l-1.26-.31-1.25-.32a1.27,1.27,0,0,0-.93.17l-1.11.66a1.28,1.28,0,0,0,.35,2.35,1.33,1.33,0,0,0,1-.13l.13-.08a1.68,1.68,0,0,0,1,.69h0a1.77,1.77,0,0,0,1.2-.14l.08.13a1.28,1.28,0,0,0,.79.58,1.31,1.31,0,0,0,1-.14,1.29,1.29,0,0,0,.45-1.76Zm-.88,1a.45.45,0,0,1-.6-.15l-.32-.52a.42.42,0,0,0-.32-.21.44.44,0,0,0-.35.12.88.88,0,0,1-.82.23.9.9,0,0,1-.62-.59.44.44,0,0,0-.25-.28.5.5,0,0,0-.38,0l-.53.31a.44.44,0,0,1-.59-.15.4.4,0,0,1-.05-.32A.46.46,0,0,1,13,266l1.11-.65a.39.39,0,0,1,.29-.08l1.25.31,1.26.32c.05,0,.13.08.21.21l.66,1.11a.42.42,0,0,1,.05.31A.46.46,0,0,1,17.68,267.82Z"/></g><g id="Tag-3" data-name="Tag"><path class="cls-2" d="M124.22,85.11l-2.51-.63a.4.4,0,0,0-.32,0l-3.67,2.19a.43.43,0,0,0-.15.59L119.75,91a.45.45,0,0,0,.59.15L124,88.94a.45.45,0,0,0,.2-.27l.64-2.51A.88.88,0,0,0,124.22,85.11Zm-.8,3.18-3.15,1.87-1.74-2.93,3.14-1.87L124,86Z"/><circle class="cls-2" cx="122.44" cy="86.89" r="0.43" transform="translate(8.12 184.21) rotate(-75.77)"/></g><g id="Receipt-3" data-name="Receipt"><path class="cls-2" d="M66.14,49.2l-4.55-1.78a.93.93,0,0,0-1.2.52l-2.27,5.81a.47.47,0,0,0,0,.43.49.49,0,0,0,.38.22l1.36.07,1.05.87a.43.43,0,0,0,.28.11l1.36.08,1,.87a.37.37,0,0,0,.14.07.41.41,0,0,0,.29,0,.47.47,0,0,0,.33-.28l2.27-5.82A.92.92,0,0,0,66.14,49.2Zm-2.41,6-.65-.55a.57.57,0,0,0-.29-.11l-1.35-.07-1-.87-.13-.08a.4.4,0,0,0-.15,0l-.86-.05,2-5.16,4.49,1.76Z"/><ellipse class="cls-2" cx="64.34" cy="51.06" rx="0.48" ry="0.48" transform="translate(-6.66 92.35) rotate(-68.62)"/><path class="cls-2" d="M61.47,50.45l1.35.53a.49.49,0,0,0,.62-.27.48.48,0,0,0-.27-.62l-1.35-.53a.49.49,0,0,0-.62.27A.48.48,0,0,0,61.47,50.45Z"/><ellipse class="cls-2" cx="63.82" cy="52.39" rx="0.48" ry="0.48" transform="translate(-8.24 92.71) rotate(-68.62)"/><path class="cls-2" d="M61,51.78l1.35.53a.48.48,0,0,0,.62-.27.49.49,0,0,0-.28-.62L61.3,50.9a.47.47,0,1,0-.35.88Z"/></g><path id="Wallet" class="cls-2" d="M93.92,137.54v-.43a.63.63,0,0,0-.66-.62h-.38l0-1a.32.32,0,0,0-.34-.32l-2.8-.06a1,1,0,0,0-1.07.93l0,.92,0,1.94,0,.66a.65.65,0,0,0,.66.63l3.91.08a.64.64,0,0,0,.68-.59v-.43a.63.63,0,0,0,.36-.54l0-.64A.64.64,0,0,0,93.92,137.54Zm-4.16-1.77,2.45.06,0,.63-2.45-.05a.34.34,0,0,1-.34-.33A.35.35,0,0,1,89.76,135.77Zm-.44,3.81,0-.64,0-1.9h.35l2.62.06.88,0v.32h-.35a1,1,0,1,0,0,1.91h.35v.32Zm4.24-1.5,0,.64h-.7a.32.32,0,1,1,0-.63h.7Z"/><path id="Delivery-2" data-name="Delivery" class="cls-3" d="M13.55,96.63l-1.68-1.16a.44.44,0,0,0-.35-.07l-.95.16-.09-.47a1,1,0,0,0-1.11-.77l-2.84.51a.94.94,0,0,0-.78,1.1l.66,3.76a1,1,0,0,0,1.12.78,1,1,0,0,0,1.89-.34l1.9-.34a1,1,0,0,0,1.11.77.94.94,0,0,0,.78-1.1A1,1,0,0,0,14,98.35l-.25-1.41A.46.46,0,0,0,13.55,96.63Zm-6.19,2.9-.67-3.76,2.85-.51L10.2,99Zm5.69-1-1.9.33-.42-2.35.76-.13,1.34.93Z"/><g id="Tag-4" data-name="Tag"><path class="cls-2" d="M53.46,115.23,51,114.59a.44.44,0,0,0-.32,0L47,116.83a.43.43,0,0,0-.15.59L49,121.09a.42.42,0,0,0,.59.15l3.67-2.19a.41.41,0,0,0,.2-.26l.63-2.51A.86.86,0,0,0,53.46,115.23Zm-.8,3.17-3.15,1.88-1.74-2.93,3.14-1.88,2.34.6Z"/><circle class="cls-2" cx="51.68" cy="117" r="0.43" transform="translate(-74.44 138.33) rotate(-75.77)"/></g><path id="Bag-2" data-name="Bag" class="cls-2" d="M136.44,118.73l-.42-.11a1.72,1.72,0,1,0-3.34-.85l-.42-.1a.86.86,0,0,0-1,.62l-.85,3.35a.86.86,0,0,0,.63,1l4.18,1.06a.85.85,0,0,0,1-.62l.85-3.35A.86.86,0,0,0,136.44,118.73Zm-1.88-1.37a.88.88,0,0,1,.63,1l-1.68-.42A.87.87,0,0,1,134.56,117.36Zm-3.36,4.49.85-3.34.42.1-.11.42a.43.43,0,1,0,.83.21l.11-.42,1.67.43-.1.42a.43.43,0,0,0,.83.21l.11-.42.42.11-.85,3.34Z"/><g id="Basket"><path class="cls-2" d="M103.93,27.26a.43.43,0,0,0-.52.32l-.11.41a.44.44,0,0,0,.32.53.43.43,0,0,0,.52-.31l.11-.42A.44.44,0,0,0,103.93,27.26Z"/><path class="cls-2" d="M105.61,27.69a.43.43,0,0,0-.53.31l-.1.42a.43.43,0,1,0,.83.21l.11-.42A.43.43,0,0,0,105.61,27.69Z"/><path class="cls-2" d="M108.27,26.91a.89.89,0,0,0-.59-.48l-.15,0L106,23.91a.45.45,0,0,0-.61-.16l-2.53,1.46-.15,0a1,1,0,0,0-.75.14.88.88,0,0,0-.35.67l-.07,3.1a.88.88,0,0,0,.68.87l3.62.91a.87.87,0,0,0,1-.44l1.41-2.76A.86.86,0,0,0,108.27,26.91Zm-2.8-2.19.84,1.36-2.23-.56Zm.58,5.31-3.62-.92.07-3.1,5,1.26Z"/></g><g id="Cart-2" data-name="Cart"><ellipse class="cls-2" cx="63.56" cy="103.78" rx="0.72" ry="0.72" transform="translate(-56.24 125.13) rotate(-68.62)"/><ellipse class="cls-2" cx="66.7" cy="105" rx="0.72" ry="0.72" transform="matrix(0.36, -0.93, 0.93, 0.36, -55.39, 128.83)"/><path class="cls-2" d="M68.5,102.38a.49.49,0,0,0,.55-.14L71,99.93a.48.48,0,0,0,.09-.43.46.46,0,0,0-.29-.33l-6.27-2.45a.47.47,0,0,0-.62.27.48.48,0,0,0,.27.62l.45.17-1.22,3.11a1.44,1.44,0,0,0,.82,1.86l3.59,1.41a.49.49,0,0,0,.62-.27.48.48,0,0,0-.27-.62l-3.59-1.41a.47.47,0,0,1-.27-.62l.17-.44Zm1.32-2.56-1.29,1.54-3.71-1.45.7-1.78Z"/></g><path id="Delivery-3" data-name="Delivery" class="cls-3" d="M52.24,164.81l-1.92-.73a.45.45,0,0,0-.36,0l-.86.41-.21-.45a1,1,0,0,0-1.28-.49l-2.56,1.21a1,1,0,0,0-.43,1.3l1.7,3.58a1,1,0,0,0,1.28.49.94.94,0,1,0,1.7-.81l1.71-.81a2.08,2.08,0,0,0,2.14-2.11l-.64-1.34A.49.49,0,0,0,52.24,164.81Zm-5.07,4.44-1.69-3.58L48,164.45,49.73,168Zm5.13-2.43-1.71.81-1.06-2.24.67-.32,1.55.59Z"/><g id="Cash"><path class="cls-2" d="M117.68,140.33l-8.06,1.59c-.74.14-1.26.67-1.16,1.18l.72,3.69c.1.5.79.8,1.53.65l8.06-1.58c.74-.15,1.26-.68,1.16-1.19L119.2,141C119.1,140.48,118.42,140.18,117.68,140.33Zm-.31,4.85-5.62,1.1a1.84,1.84,0,0,0-1.39-.59l-.39-2a1.83,1.83,0,0,0,1-1.07l5.62-1.11a1.88,1.88,0,0,0,1.38.6l.4,2A1.84,1.84,0,0,0,117.37,145.18Z"/><path class="cls-2" d="M113.92,142.5c-1.11.22-1.89,1-1.74,1.78s1.17,1.21,2.29,1,1.89-1,1.74-1.78S115,142.29,113.92,142.5Zm.36,1.85c-.37.07-.71-.08-.76-.33s.21-.52.58-.59.71.07.76.32S114.65,144.27,114.28,144.35Z"/></g><g id="Cart-3" data-name="Cart"><ellipse class="cls-2" cx="101.47" cy="82.25" rx="0.41" ry="0.38" transform="translate(-25.45 51.4) rotate(-25.37)"/><ellipse class="cls-2" cx="103.21" cy="81.42" rx="0.41" ry="0.38" transform="translate(-24.93 52.07) rotate(-25.37)"/><path class="cls-2" d="M102.89,79.78a.29.29,0,0,0,.16-.27l-.15-1.59a.22.22,0,0,0-.13-.19.29.29,0,0,0-.24,0l-3.48,1.65a.25.25,0,0,0-.14.34.27.27,0,0,0,.35.11l.25-.12.75,1.58a.79.79,0,0,0,1.07.32l2-.94a.26.26,0,0,0,.14-.34.27.27,0,0,0-.36-.11l-2,.94a.25.25,0,0,1-.35-.11l-.11-.22Zm-.49-1.43.09,1.06-2,1-.43-.91Z"/></g><path id="Delivery-4" data-name="Delivery" class="cls-3" d="M8.23,5.83,7.5,5a.24.24,0,0,0-.18-.09l-.55-.07,0-.25A.54.54,0,0,0,6.31,4L4.67,3.83a.52.52,0,0,0-.6.43l-.23,2a.52.52,0,0,0,.48.56.54.54,0,0,0,.49.56.54.54,0,0,0,.61-.43l1.09.13a.55.55,0,0,0,1.09.12.51.51,0,0,0,.6-.43L8.29,6A.23.23,0,0,0,8.23,5.83Zm-3.85.48.24-2,1.63.2L6,6.5Zm3.28.39L6.57,6.57l.14-1.24.44,0,.58.68Z"/><g id="Lock"><path class="cls-2" d="M135.6,53.07l.05-.5a1.1,1.1,0,0,0-2.18-.25l-.06.49a.53.53,0,0,0-.6.43l-.18,1.49a.54.54,0,0,0,.49.57l2.18.25a.53.53,0,0,0,.61-.43l.17-1.49A.52.52,0,0,0,135.6,53.07ZM134,52.38a.52.52,0,0,1,.6-.43.53.53,0,0,1,.49.56l-.06.5L134,52.88Zm-.84,2.42.17-1.49,2.19.26-.18,1.49Z"/><ellipse class="cls-2" cx="134.36" cy="54.18" rx="0.25" ry="0.28" transform="translate(64.79 181.26) rotate(-83.27)"/></g><g id="Cart-4" data-name="Cart"><ellipse class="cls-2" cx="127.41" cy="41.06" rx="0.38" ry="0.41" transform="translate(71.69 162.78) rotate(-83.27)"/><ellipse class="cls-2" cx="129.32" cy="41.29" rx="0.38" ry="0.41" transform="translate(73.15 164.88) rotate(-83.27)"/><path class="cls-2" d="M129.92,39.72a.26.26,0,0,0,.28-.14l.72-1.42a.24.24,0,0,0,0-.23.28.28,0,0,0-.21-.13l-3.82-.45a.26.26,0,0,0-.3.22.26.26,0,0,0,.24.28l.27,0-.2,1.74a.79.79,0,0,0,.73.84l2.18.26a.28.28,0,0,0,.31-.22.27.27,0,0,0-.25-.28L127.68,40a.27.27,0,0,1-.25-.28l0-.25Zm.34-1.47-.48,1-2.26-.26.12-1Z"/></g><g id="Box-3" data-name="Box"><path class="cls-2" d="M8.77,33.45l-3.28-.39a.54.54,0,0,0-.61.43l-.08.75a.26.26,0,0,0,.24.28l-.24,2a.5.5,0,0,0,.47.54L8,37.39A.52.52,0,0,0,8.63,37l.23-2a.26.26,0,0,0,.3-.22L9.25,34A.52.52,0,0,0,8.77,33.45Zm-3.34.11,3.28.38-.06.5-3.28-.39Zm2.65,3.33-2.73-.32.24-2,2.73.33Z"/><path class="cls-2" d="M6.32,35.42l1.09.13a.26.26,0,0,0,.3-.21.25.25,0,0,0-.24-.28l-1.09-.13a.25.25,0,1,0-.06.49Z"/></g><path id="Bag-3" data-name="Bag" class="cls-2" d="M86.31,117.39l-.32-.13a1.41,1.41,0,0,0-2.57-1.11l-.33-.14a.67.67,0,0,0-.89.31l-1,2.34a.66.66,0,0,0,.39.86l3.21,1.38a.66.66,0,0,0,.9-.31l1-2.33A.67.67,0,0,0,86.31,117.39ZM85,116.12a.68.68,0,0,1,.4.86l-1.29-.55A.67.67,0,0,1,85,116.12Zm-3.11,2.82,1-2.34.33.14L83,117a.34.34,0,0,0,.2.43.33.33,0,0,0,.44-.15l.13-.3,1.29.56-.13.29a.34.34,0,0,0,.2.43.33.33,0,0,0,.44-.16l.13-.29.32.14-1,2.34Z"/><g id="Unlocked-2" data-name="Unlocked"><path class="cls-2" d="M9.56,123.58l-2.09,0v-.64a.67.67,0,0,1,.71-.62.71.71,0,0,1,.65.44.37.37,0,0,0,.45.21.32.32,0,0,0,.22-.41,1.4,1.4,0,0,0-1.3-.87,1.35,1.35,0,0,0-1.43,1.24v.63a.68.68,0,0,0-.72.63L6,126a.68.68,0,0,0,.68.66l2.8.06a.67.67,0,0,0,.72-.62l0-1.91A.67.67,0,0,0,9.56,123.58Zm-2.85,2.48,0-1.91,2.8.06,0,1.91Z"/><ellipse class="cls-2" cx="8.13" cy="125.14" rx="0.32" ry="0.35" transform="translate(-117.16 130.49) rotate(-88.73)"/></g><g id="Shop-2" data-name="Shop"><path class="cls-2" d="M20.5,17.09a.34.34,0,0,0-.36.31l0,1.28-.7,0,0-.63a1.06,1.06,0,0,0-2.1-.05l0,.64-.7,0,0-1.27A.34.34,0,0,0,16.3,17a.35.35,0,0,0-.36.31l0,1.59a.34.34,0,0,0,.34.33l4.2.09a.34.34,0,0,0,.36-.31l0-1.59A.34.34,0,0,0,20.5,17.09ZM18,18a.33.33,0,0,1,.35-.31.34.34,0,0,1,.35.33l0,.64-.7,0Z"/><path class="cls-2" d="M20.93,15.2l-.73-.68a1,1,0,0,0-.69-.31l-1.05,0-1.05,0a1,1,0,0,0-.7.28l-.76.65a.9.9,0,0,0-.32.67.85.85,0,0,0,.29.67,1.15,1.15,0,0,0,1.48,0l.09-.08a1.48,1.48,0,0,0,.91.34h0a1.41,1.41,0,0,0,.92-.3l.09.08a1.07,1.07,0,0,0,.73.29,1.09,1.09,0,0,0,.75-.26.86.86,0,0,0,.32-.66A.88.88,0,0,0,20.93,15.2Zm-.51.88a.39.39,0,0,1-.5,0l-.35-.32a.36.36,0,0,0-.28-.1.35.35,0,0,0-.26.15.72.72,0,0,1-.61.29.7.7,0,0,1-.59-.32.42.42,0,0,0-.26-.16.38.38,0,0,0-.29.09l-.36.3a.38.38,0,0,1-.5,0,.27.27,0,0,1-.09-.22.25.25,0,0,1,.1-.21l.76-.66a.38.38,0,0,1,.21-.1l1.05,0,1.05,0a.44.44,0,0,1,.2.12l.73.69a.25.25,0,0,1,.09.22A.26.26,0,0,1,20.42,16.08Z"/></g><path id="Bag-4" data-name="Bag" class="cls-2" d="M39,64.32h-.35a1.41,1.41,0,0,0-2.8-.07h-.35a.67.67,0,0,0-.71.62l-.06,2.54a.67.67,0,0,0,.69.65l3.5.08a.66.66,0,0,0,.71-.62L39.72,65A.68.68,0,0,0,39,64.32Zm-1.73-.67a.67.67,0,0,1,.68.65l-1.4,0A.67.67,0,0,1,37.3,63.65Zm-1.84,3.78.06-2.55h.35v.32a.34.34,0,0,0,.35.32.32.32,0,0,0,.35-.31v-.31l1.4,0v.32a.34.34,0,0,0,.35.32.32.32,0,0,0,.35-.31V65H39L39,67.51Z"/><g id="Basket-2" data-name="Basket"><path class="cls-2" d="M11.43,62.05a.21.21,0,0,0-.21.22v.23a.21.21,0,0,0,.2.22.22.22,0,0,0,.22-.22v-.22A.21.21,0,0,0,11.43,62.05Z"/><path class="cls-2" d="M12.26,62.07a.23.23,0,0,0-.22.22v.22a.21.21,0,0,0,.2.23.2.2,0,0,0,.21-.22V62.3A.22.22,0,0,0,12.26,62.07Z"/><path class="cls-2" d="M13.42,61.37a.44.44,0,0,0-.33-.18H13l-1-1.08a.22.22,0,0,0-.31,0l-1,1h-.08a.39.39,0,0,0-.33.16.45.45,0,0,0-.1.37l.3,1.58a.44.44,0,0,0,.41.36l1.79,0a.44.44,0,0,0,.43-.34l.37-1.56A.46.46,0,0,0,13.42,61.37Zm-1.54-.78.53.59-1.1,0Zm.83,2.61-1.79,0-.3-1.57,2.46,0Z"/></g><path id="Card-2" data-name="Card" class="cls-2" d="M116.11,57l-2.55.45-2.54.45a.86.86,0,0,0-.7,1l.75,4.26a.86.86,0,0,0,1,.69l2.55-.45,2.55-.45a.86.86,0,0,0,.7-1l-.76-4.25A.86.86,0,0,0,116.11,57Zm.91,5.1-2.55.45-2.55.45-.45-2.55L114,60l2.54-.45Zm-.61-3.4-2.54.45-2.55.45-.15-.85,2.54-.45,2.55-.45Z"/><path class="cls-4" d="M85.73,56.38a31.94,31.94,0,0,1-2.17,7,.14.14,0,0,0,.09.19,62.69,62.69,0,0,0,8,2.24c.17,0,.24-.22.07-.25a63.3,63.3,0,0,1-8-2.24l.09.19a33.05,33.05,0,0,0,2.19-7c0-.16-.23-.23-.26-.07Z"/><path class="cls-4" d="M84.45,61.51c1-.57,1.91-1.16,2.84-1.77l-.19-.08a5,5,0,0,0,.66,1.58,1.39,1.39,0,0,0,.42.51c.2.1.44-.06.62-.14,1.3-.56,2.58-1.16,3.85-1.79.15-.07,0-.3-.14-.22q-1.55.76-3.12,1.47c-.26.11-.52.25-.79.34s-.3.14-.43,0-.16-.24-.23-.36a5.14,5.14,0,0,1-.59-1.43.14.14,0,0,0-.19-.08q-1.41.91-2.85,1.77a.14.14,0,0,0,.14.23Z"/><path class="cls-4" d="M85.83,56.27l-.5.56.1.07a2.61,2.61,0,0,1,.52-.58h-.09a3.44,3.44,0,0,1,.35.69c0,.07.14,0,.11,0a3,3,0,0,0-.36-.72.06.06,0,0,0-.09,0,2.65,2.65,0,0,0-.55.61c0,.06.05.12.1.07l.5-.55a.06.06,0,0,0-.09-.09Z"/><path class="cls-4" d="M91.65,65.54a2.76,2.76,0,0,0-.34-.5l-.08.1.23.18c.08.08.12.11.12.23s0,.13-.11.2a.83.83,0,0,1-.21.16c-.06,0,0,.15.07.11a2.51,2.51,0,0,0,.31-.26c0-.06.13-.13.13-.21s-.09-.17-.14-.22a2.43,2.43,0,0,0-.34-.3c-.05,0-.11,0-.07.1a1.86,1.86,0,0,1,.32.47c0,.07.14,0,.11-.06Z"/><path class="cls-4" d="M85,58.13h.26s.23,0,.25,0a.06.06,0,0,0,.12,0c0-.09-.12-.1-.21-.11L85,58c-.08,0-.07.12,0,.12Z"/><path class="cls-4" d="M84.65,59.6a.69.69,0,0,1,.35,0c.07,0,.1-.1,0-.12a1.14,1.14,0,0,0-.41,0,.06.06,0,0,0,0,.12Z"/><path class="cls-4" d="M84,61.23a2.4,2.4,0,0,0,.53.12c.08,0,.08-.11,0-.12a2.15,2.15,0,0,1-.5-.12.06.06,0,1,0,0,.12Z"/><path class="cls-4" d="M85.29,64l-.13.35c0,.07.09.1.12,0L85.4,64a.06.06,0,1,0-.11,0Z"/><path class="cls-4" d="M87.37,64.74l-.08.31c0,.07.1.11.12,0l.08-.31c0-.07-.1-.1-.12,0Z"/><path class="cls-4" d="M89.47,65.21l-.12.33c0,.07.1.1.12,0l.12-.33c0-.07-.1-.1-.12,0Z"/><path id="Delivery-5" data-name="Delivery" class="cls-3" d="M60.09,73.08,59,72.76a.3.3,0,0,0-.21,0l-.49.24-.11-.23a.53.53,0,0,0-.71-.21L56,73.28a.52.52,0,0,0-.29.68l.86,1.81a.53.53,0,0,0,.71.22.52.52,0,0,0,.71.21.54.54,0,0,0,.29-.69l1-.47a.55.55,0,0,0,1-.47.54.54,0,0,0,.29-.69l-.33-.67A.23.23,0,0,0,60.09,73.08Zm-3,2.45-.86-1.8L57.71,73l.86,1.81Zm3-1.41-1,.47-.53-1.13.39-.18.86.26Z"/><g id="Lock-2" data-name="Lock"><path class="cls-2" d="M112.82,42.27l-.09-.49a1.06,1.06,0,0,0-1.28-.77,1,1,0,0,0-.88,1.19l.09.49a.54.54,0,0,0-.44.6l.29,1.47a.54.54,0,0,0,.64.39l2.16-.43a.53.53,0,0,0,.44-.6l-.29-1.47A.53.53,0,0,0,112.82,42.27Zm-1.71-.17a.52.52,0,0,1,.44-.6.53.53,0,0,1,.64.38l.09.49-1.08.22Zm-.06,2.56-.29-1.48,2.16-.42.29,1.47Z"/><ellipse class="cls-2" cx="111.98" cy="43.71" rx="0.27" ry="0.25" transform="translate(-6.33 22.45) rotate(-11.14)"/></g><g id="Cash-2" data-name="Cash"><path class="cls-2" d="M124.43,296.35l-3.24.64a.53.53,0,0,0-.44.59l.39,2a.51.51,0,0,0,.63.38l3.24-.64a.51.51,0,0,0,.44-.59l-.38-2A.53.53,0,0,0,124.43,296.35Zm0,2.55-2.25.44a.78.78,0,0,0-.58-.34l-.21-1.08a.76.76,0,0,0,.4-.54l2.26-.44a.79.79,0,0,0,.57.35l.22,1.07A.79.79,0,0,0,124.42,298.9Z"/><path class="cls-2" d="M123,297.41a.78.78,0,0,0-.67.89.83.83,0,0,0,1.62-.32A.79.79,0,0,0,123,297.41Zm.19,1a.27.27,0,0,1-.32-.2.25.25,0,0,1,.22-.29.25.25,0,1,1,.1.49Z"/></g><path id="Gift" class="cls-2" d="M134.1,98.67l-.32.06a.57.57,0,0,0,0-.26.79.79,0,0,0-.95-.57.87.87,0,0,0-.5.29.94.94,0,0,0-.58-.08.79.79,0,0,0-.67.89.87.87,0,0,0,.1.24l-.32.06a.53.53,0,0,0-.44.6l.14.74a.27.27,0,0,0,.32.19l.2,1a.51.51,0,0,0,.63.38l2.7-.53a.51.51,0,0,0,.44-.59l-.19-1a.25.25,0,0,0,.22-.29l-.14-.74A.53.53,0,0,0,134.1,98.67Zm.19,1-1.35.26-.09-.49,1.35-.26Zm-1.37-1.26a.26.26,0,0,1,.32.19.26.26,0,0,1-.22.3.27.27,0,0,1-.32-.19A.27.27,0,0,1,132.92,98.39Zm-1.3.51a.27.27,0,0,1,.22-.3.26.26,0,0,1,.32.19.26.26,0,0,1-.22.3A.27.27,0,0,1,131.62,98.9Zm-.66.89,1.35-.26.09.49-1.34.26Zm.46.93,1.08-.21.19,1-1.08.21Zm2.89.45-1.08.21-.19-1,1.08-.21Z"/><g id="Box-4" data-name="Box"><path class="cls-2" d="M26.17,315.85l-3.24.64a.52.52,0,0,0-.44.6l.14.73a.27.27,0,0,0,.32.2l.39,2a.51.51,0,0,0,.61.37l2.74-.54a.52.52,0,0,0,.43-.58l-.39-2A.26.26,0,0,0,27,317l-.15-.73A.53.53,0,0,0,26.17,315.85ZM23,317l3.23-.64.1.5-3.24.63Zm3.54,2.36-2.69.53-.39-2,2.7-.53Z"/><path class="cls-2" d="M24.44,318.49l1.08-.22a.25.25,0,1,0-.09-.49l-1.08.22a.25.25,0,0,0-.22.29A.26.26,0,0,0,24.44,318.49Z"/></g><g id="Cash-3" data-name="Cash"><path class="cls-2" d="M13.73,295.89l-5.37-2.11a1,1,0,0,0-1.25.54l-1.39,3.55a1,1,0,0,0,.55,1.24l5.37,2.11a1,1,0,0,0,1.25-.54l1.39-3.55A1,1,0,0,0,13.73,295.89ZM11.18,300l-3.75-1.47a1.42,1.42,0,0,0-.5-1.12l.76-1.94A1.46,1.46,0,0,0,8.82,295l3.75,1.47a1.42,1.42,0,0,0,.5,1.12l-.76,1.94A1.46,1.46,0,0,0,11.18,300Z"/><path class="cls-2" d="M10.52,296.17a1.43,1.43,0,1,0,.82,1.86A1.43,1.43,0,0,0,10.52,296.17Zm-.69,1.77a.47.47,0,1,1,.62-.26A.48.48,0,0,1,9.83,297.94Z"/></g><g id="Shop-3" data-name="Shop"><path class="cls-2" d="M134.5,156.09a.34.34,0,0,0-.36.31l0,1.28-.7,0,0-.63a1.06,1.06,0,0,0-2.1-.05l0,.64-.7,0,0-1.27a.34.34,0,0,0-.34-.33.35.35,0,0,0-.36.31l0,1.59a.34.34,0,0,0,.34.33l4.2.09a.34.34,0,0,0,.36-.31l0-1.59A.34.34,0,0,0,134.5,156.09ZM132,157a.33.33,0,0,1,.35-.31.34.34,0,0,1,.35.33l0,.64-.7,0Z"/><path class="cls-2" d="M134.93,154.2l-.73-.68a1,1,0,0,0-.69-.31l-1,0-1.05,0a1,1,0,0,0-.7.28l-.76.65a.9.9,0,0,0-.32.67.85.85,0,0,0,.29.67,1.15,1.15,0,0,0,1.48,0l.09-.08a1.48,1.48,0,0,0,.91.34h0a1.41,1.41,0,0,0,.92-.3l.09.08a1.07,1.07,0,0,0,.73.29,1.09,1.09,0,0,0,.75-.26.86.86,0,0,0,.32-.66A.88.88,0,0,0,134.93,154.2Zm-.51.88a.39.39,0,0,1-.5,0l-.35-.32a.36.36,0,0,0-.28-.1.35.35,0,0,0-.26.15.72.72,0,0,1-.61.29.7.7,0,0,1-.59-.32.42.42,0,0,0-.26-.16.38.38,0,0,0-.29.09l-.36.3a.38.38,0,0,1-.5,0,.27.27,0,0,1-.09-.22.25.25,0,0,1,.1-.21l.76-.66a.38.38,0,0,1,.21-.1l1,0,1.05,0a.44.44,0,0,1,.2.12l.73.69a.25.25,0,0,1,.09.22A.26.26,0,0,1,134.42,155.08Z"/></g><g id="Box-5" data-name="Box"><path class="cls-2" d="M98.68,222.31l-2.75,3.17a.67.67,0,0,0,0,.94l.72.63a.34.34,0,0,0,.47-.06l1.94,1.69a.65.65,0,0,0,.91-.11l2.33-2.68a.65.65,0,0,0,0-.91l-2-1.69a.32.32,0,0,0,0-.47l-.72-.63A.67.67,0,0,0,98.68,222.31Zm-2.27,3.59,2.75-3.18.48.42-2.75,3.17Zm5.41-.41-2.29,2.64-1.93-1.67,2.3-2.64Z"/><path class="cls-2" d="M99,226.3l.92-1.06a.33.33,0,0,0,0-.47.33.33,0,0,0-.47,0l-.92,1.06a.33.33,0,0,0,0,.47A.34.34,0,0,0,99,226.3Z"/></g><path id="Delivery-6" data-name="Delivery" class="cls-3" d="M106,309.93l-.28-1.08a.3.3,0,0,0-.12-.17l-.46-.3.14-.21a.53.53,0,0,0-.19-.72l-1.37-.91a.53.53,0,0,0-.74.12l-1.1,1.67a57.06,57.06,0,0,1,.37,1.44.53.53,0,0,0,.73-.12l.92.61a.55.55,0,0,0,.92.6.53.53,0,0,0,.74-.11l.41-.63A.24.24,0,0,0,106,309.93Zm-3.66-1.3,1.1-1.67,1.38.91-1.1,1.67Zm2.76,1.81-.92-.6.69-1,.36.24.22.86Z"/><g id="Unlocked-3" data-name="Unlocked"><path class="cls-2" d="M72,329.65l-1.38-.91.28-.42a.52.52,0,0,1,.73-.11.56.56,0,0,1,.25.56.28.28,0,0,0,.21.32.24.24,0,0,0,.31-.17,1.1,1.1,0,0,0-.5-1.13,1,1,0,0,0-1.46.23l-.28.42a.52.52,0,0,0-.73.11l-.83,1.26a.53.53,0,0,0,.19.72l1.83,1.21a.54.54,0,0,0,.74-.12l.82-1.25A.53.53,0,0,0,72,329.65Zm-2.94.46.83-1.25,1.83,1.21-.82,1.25Z"/><ellipse class="cls-2" cx="70.4" cy="330.09" rx="0.25" ry="0.28" transform="translate(-243.96 207.24) rotate(-56.62)"/></g><g id="Receipt-4" data-name="Receipt"><path class="cls-2" d="M128.17,273.53l-4.63-3a1.13,1.13,0,0,0-1.54.42l-4.48,6.8a.66.66,0,0,0-.09.54.5.5,0,0,0,.37.35l1.53.34.92,1.27a.48.48,0,0,0,.29.19l1.53.34L123,282a.68.68,0,0,0,.12.12.49.49,0,0,0,.34.07.6.6,0,0,0,.46-.29l4.48-6.8A1.13,1.13,0,0,0,128.17,273.53Zm-4.7,7.06-.57-.8a.44.44,0,0,0-.29-.19l-1.53-.35-.92-1.27a.49.49,0,0,0-.13-.12l-.16-.07-1-.21,4-6,4.56,3Z"/><ellipse class="cls-2" cx="125.51" cy="275.51" rx="0.62" ry="0.55" transform="translate(-173.6 228.71) rotate(-56.62)"/><path class="cls-2" d="M122.43,274.22l1.37.91a.6.6,0,0,0,.8-.22.58.58,0,0,0-.12-.82l-1.37-.91a.63.63,0,0,0-.68,1Z"/><ellipse class="cls-2" cx="124.48" cy="277.07" rx="0.62" ry="0.55" transform="translate(-175.36 228.56) rotate(-56.62)"/><path class="cls-2" d="M121.4,275.78l1.37.9a.62.62,0,0,0,.69-1l-1.37-.91a.63.63,0,0,0-.69,1Z"/></g><g id="Shop-4" data-name="Shop"><path class="cls-2" d="M36.27,132.6a.52.52,0,0,0-.72.08l-1,1.56-.93-.61.51-.78A1.68,1.68,0,0,0,31.34,131l-.52.78-.93-.61,1-1.56a.51.51,0,0,0-.2-.69A.52.52,0,0,0,30,129L28.71,131a.52.52,0,0,0,.21.7l5.55,3.66a.52.52,0,0,0,.72-.08l1.29-2A.51.51,0,0,0,36.27,132.6Zm-4-1a.52.52,0,0,1,.72-.08.51.51,0,0,1,.21.69l-.52.78-.92-.61Z"/><path class="cls-2" d="M38.33,130.61l-.44-1.47a1.76,1.76,0,0,0-.69-1l-1.39-.92-1.39-.91a1.73,1.73,0,0,0-1.16-.25l-1.52.17a1.25,1.25,0,0,0-1.09,1.65,1.9,1.9,0,0,0,.76,1,1.79,1.79,0,0,0,1.2.31l.18,0a2.46,2.46,0,0,0,1,1.19h0a2.49,2.49,0,0,0,1.47.41l.05.18a1.87,1.87,0,0,0,.76,1,1.8,1.8,0,0,0,1.2.31,1.23,1.23,0,0,0,1.09-1.64Zm-1.37.66a.65.65,0,0,1-.66-.44l-.22-.69a.62.62,0,0,0-.77-.4,1.19,1.19,0,0,1-1-.14,1.21,1.21,0,0,1-.55-.91.55.55,0,0,0-.21-.41.66.66,0,0,0-.46-.14l-.72.08a.65.65,0,0,1-.66-.44.42.42,0,0,1,0-.35.42.42,0,0,1,.31-.18l1.52-.18a.6.6,0,0,1,.37.05l1.39.91,1.39.92a.69.69,0,0,1,.18.31l.44,1.48a.39.39,0,0,1,0,.35A.45.45,0,0,1,37,131.27Z"/></g><path id="Gift-2" data-name="Gift" class="cls-2" d="M19.89,175.68l-.27-.18a.77.77,0,0,0,.18-.18.79.79,0,0,0-.27-1.08.86.86,0,0,0-.57-.14.89.89,0,0,0-.35-.47.79.79,0,0,0-1.1.17.82.82,0,0,0-.1.24l-.27-.18a.53.53,0,0,0-.73.12l-.42.62a.27.27,0,0,0,.09.36l-.55.84a.53.53,0,0,0,.19.72L18,178a.53.53,0,0,0,.74-.11l.55-.84a.26.26,0,0,0,.37-.06l.41-.62A.52.52,0,0,0,19.89,175.68Zm-.55.83-1.14-.75.27-.42,1.15.76Zm-.09-1.85a.25.25,0,1,1-.27.41.25.25,0,1,1,.27-.41ZM18,174.11a.25.25,0,0,1,.36-.06.25.25,0,1,1-.27.42A.26.26,0,0,1,18,174.11Zm-1.11.17L18,175l-.27.41-1.15-.75Zm-.32,1,.92.6-.55.84L16,176.1Zm1.75,2.34-.92-.6.55-.84.92.61Z"/><g id="Basket-3" data-name="Basket"><path class="cls-2" d="M14.12,144.34a.26.26,0,0,0-.37.06l-.13.2a.25.25,0,0,0,.09.36.26.26,0,0,0,.37-.05l.13-.21A.25.25,0,0,0,14.12,144.34Z"/><path class="cls-2" d="M15,144.94a.28.28,0,0,0-.37.06l-.13.21a.26.26,0,0,0,.09.36.24.24,0,0,0,.36-.06l.14-.21A.26.26,0,0,0,15,144.94Z"/><path class="cls-2" d="M16.76,145.1a.6.6,0,0,0-.27-.4l-.08,0L16,142.93a.32.32,0,0,0-.34-.22l-1.76.25-.08-.05a.58.58,0,0,0-.47-.09.46.46,0,0,0-.33.29l-.59,1.71a.55.55,0,0,0,.24.63l2,1.31a.55.55,0,0,0,.68,0l1.33-1.22A.44.44,0,0,0,16.76,145.1Zm-1.27-1.83.25.94-1.22-.81Zm-.6,3.07-2-1.31.59-1.7,2.73,1.79Z"/></g><g id="Lock-3" data-name="Lock"><path class="cls-2" d="M70.64,273.83l-.15-.85a1.73,1.73,0,1,0-3.4.6l.15.85a.86.86,0,0,0-.69,1L67,278a.86.86,0,0,0,1,.7l3.4-.6a.86.86,0,0,0,.69-1l-.45-2.55A.86.86,0,0,0,70.64,273.83Zm-2.7-.4a.86.86,0,0,1,1.7-.3l.15.85-1.7.3Zm-.09,4.4-.45-2.55,3.39-.6.46,2.55Z"/><circle class="cls-2" cx="69.32" cy="276.26" r="0.43" transform="translate(-47.19 16.36) rotate(-10.06)"/></g><g id="Cash-4" data-name="Cash"><path class="cls-2" d="M9.47,236.67l-5.09.91a.86.86,0,0,0-.7,1l.6,3.4a.87.87,0,0,0,1,.7l5.1-.91a.86.86,0,0,0,.7-1l-.61-3.4A.86.86,0,0,0,9.47,236.67Zm0,4.39-3.56.63a1.29,1.29,0,0,0-.9-.64l-.33-1.85a1.3,1.3,0,0,0,.63-.91l3.55-.63a1.29,1.29,0,0,0,.91.63l.33,1.86A1.27,1.27,0,0,0,9.46,241.06Z"/><path class="cls-2" d="M7.15,238.4A1.29,1.29,0,0,0,7.6,241a1.29,1.29,0,1,0-.45-2.55Zm.3,1.7a.44.44,0,0,1-.5-.35.44.44,0,0,1,.35-.5.43.43,0,0,1,.5.35A.43.43,0,0,1,7.45,240.1Z"/></g><path class="cls-4" d="M63.73,125.38a31.94,31.94,0,0,1-2.17,7,.14.14,0,0,0,.09.19,62.69,62.69,0,0,0,8,2.24c.17,0,.24-.22.07-.25a63.3,63.3,0,0,1-8-2.24l.09.19a33.05,33.05,0,0,0,2.19-7c0-.16-.23-.23-.26-.07Z"/><path class="cls-4" d="M62.45,130.51c1-.57,1.91-1.16,2.84-1.77l-.19-.08a5,5,0,0,0,.66,1.58,1.39,1.39,0,0,0,.42.51c.2.1.44-.06.62-.14,1.3-.56,2.58-1.16,3.85-1.79.15-.07,0-.3-.14-.22q-1.55.77-3.12,1.47c-.26.11-.52.25-.79.34s-.3.14-.43,0-.16-.24-.23-.36a5.14,5.14,0,0,1-.59-1.43.14.14,0,0,0-.19-.08q-1.41.92-2.85,1.77a.14.14,0,0,0,.14.23Z"/><path class="cls-4" d="M63.83,125.27l-.5.56.1.07a2.61,2.61,0,0,1,.52-.58h-.09a3.44,3.44,0,0,1,.35.69c0,.07.14,0,.11,0a3,3,0,0,0-.36-.72.06.06,0,0,0-.09,0,2.65,2.65,0,0,0-.55.61c0,.06,0,.12.1.07l.5-.55a.06.06,0,0,0-.09-.09Z"/><path class="cls-4" d="M69.65,134.54a2.76,2.76,0,0,0-.34-.5l-.08.1.23.18c.08.08.12.11.12.23s0,.13-.11.2a.83.83,0,0,1-.21.16c-.06.05,0,.15.07.11a2.51,2.51,0,0,0,.31-.26c0-.06.13-.13.13-.21s-.09-.17-.14-.22a2.43,2.43,0,0,0-.34-.3c-.05,0-.11.05-.07.1a1.86,1.86,0,0,1,.32.47c0,.07.14,0,.11-.06Z"/><path class="cls-4" d="M63,127.13h.26s.23,0,.25,0a.06.06,0,0,0,.12,0c0-.09-.12-.1-.21-.11a3,3,0,0,0-.42,0c-.08,0-.07.12,0,.12Z"/><path class="cls-4" d="M62.65,128.6a.69.69,0,0,1,.35,0c.07,0,.1-.1,0-.12a1.14,1.14,0,0,0-.41,0,.06.06,0,0,0,0,.12Z"/><path class="cls-4" d="M62,130.23a2.4,2.4,0,0,0,.53.12c.08,0,.08-.11,0-.12a2.15,2.15,0,0,1-.5-.12.06.06,0,1,0,0,.12Z"/><path class="cls-4" d="M63.29,133l-.13.35c0,.07.09.1.12,0l.12-.34a.06.06,0,1,0-.11,0Z"/><path class="cls-4" d="M65.37,133.74l-.08.31c0,.07.1.11.12,0l.08-.31c0-.07-.1-.1-.12,0Z"/><path class="cls-4" d="M67.47,134.21l-.12.33c0,.07.1.1.12,0l.12-.33c0-.07-.1-.1-.12,0Z"/><g id="Shop-5" data-name="Shop"><path class="cls-2" d="M44.94,94.1a.26.26,0,0,0-.3.22l-.12,1L44,95.25l.05-.5a.82.82,0,0,0-1.63-.19l-.06.49L41.79,95l.12-1a.27.27,0,0,0-.25-.28.26.26,0,0,0-.3.21l-.15,1.24a.27.27,0,0,0,.25.28l3.28.39a.26.26,0,0,0,.3-.22l.14-1.24A.26.26,0,0,0,44.94,94.1Zm-2,.52a.26.26,0,0,1,.3-.21.27.27,0,0,1,.25.28l-.06.49-.55-.06Z"/><path class="cls-2" d="M45.42,92.66l-.52-.6a.84.84,0,0,0-.51-.29l-.82-.1-.82-.09a.86.86,0,0,0-.58.16l-.64.46a.68.68,0,0,0-.3.49.7.7,0,0,0,.18.55.87.87,0,0,0,1.15.14l.08,0a1.15,1.15,0,0,0,.69.33h0a1.19,1.19,0,0,0,.75-.16l.06.07a.89.89,0,0,0,1.16.13.68.68,0,0,0,.3-.49A.7.7,0,0,0,45.42,92.66ZM45,93.3a.3.3,0,0,1-.39,0L44.32,93a.32.32,0,0,0-.22-.1.28.28,0,0,0-.21.1.6.6,0,0,1-.5.18.55.55,0,0,1-.44-.29.28.28,0,0,0-.19-.14.27.27,0,0,0-.23,0l-.31.21a.31.31,0,0,1-.39,0,.22.22,0,0,1,0-.17.18.18,0,0,1,.1-.16l.64-.46a.35.35,0,0,1,.17-.07l.82.1.82.1a.31.31,0,0,1,.15.1L45,93a.25.25,0,0,1,0,.18A.2.2,0,0,1,45,93.3Z"/></g><g id="Box-6" data-name="Box"><path class="cls-2" d="M131.82,72.48,128,70.82a.67.67,0,0,0-.89.31l-.38.88a.34.34,0,0,0,.2.43l-1,2.36a.65.65,0,0,0,.38.83l3.27,1.4a.65.65,0,0,0,.86-.3l1-2.36a.33.33,0,0,0,.45-.15l.37-.88A.66.66,0,0,0,131.82,72.48Zm-4.11-1.07,3.86,1.66-.25.58L127.46,72Zm2,5-3.21-1.38,1-2.34,3.22,1.38Z"/><path class="cls-2" d="M128.12,74l1.29.55a.33.33,0,0,0,.44-.15.33.33,0,0,0-.19-.43l-1.29-.56a.35.35,0,0,0-.45.16A.34.34,0,0,0,128.12,74Z"/></g><g id="Tag-5" data-name="Tag"><path class="cls-2" d="M28.86,79.88l-2.34-1.69a.52.52,0,0,0-.36-.08l-4.69.75a.48.48,0,0,0-.39.55l.79,4.68a.51.51,0,0,0,.2.31.5.5,0,0,0,.36.09l4.68-.76a.46.46,0,0,0,.31-.19l1.67-2.33A.94.94,0,0,0,28.86,79.88Zm-2.1,2.94-4,.65-.63-3.74,4-.64,2.19,1.56Z"/><ellipse class="cls-2" cx="26.3" cy="80.97" rx="0.48" ry="0.48" transform="translate(-54.84 55.21) rotate(-54.39)"/></g><g id="Cart-5" data-name="Cart"><ellipse class="cls-2" cx="25.56" cy="49.78" rx="0.72" ry="0.72" transform="translate(-30.11 55.43) rotate(-68.62)"/><ellipse class="cls-2" cx="28.7" cy="51" rx="0.72" ry="0.72" transform="matrix(0.36, -0.93, 0.93, 0.36, -29.26, 59.13)"/><path class="cls-2" d="M30.5,48.38a.49.49,0,0,0,.55-.14L33,45.93a.48.48,0,0,0,.09-.43.46.46,0,0,0-.29-.33l-6.27-2.45a.47.47,0,0,0-.62.27.48.48,0,0,0,.27.62l.45.17L25.4,46.89a1.44,1.44,0,0,0,.82,1.86l3.59,1.41a.49.49,0,0,0,.62-.27.48.48,0,0,0-.27-.62l-3.59-1.41a.47.47,0,0,1-.27-.62l.17-.44Zm1.32-2.56-1.29,1.54-3.71-1.45.7-1.78Z"/></g><path id="Wallet-2" data-name="Wallet" class="cls-2" d="M47.39,34.09l.24-.6a.91.91,0,0,0-.52-1.19l-.49-.19.52-1.33a.47.47,0,0,0-.27-.62l-3.59-1.41a1.43,1.43,0,0,0-1.86.81l-.51,1.29-1.06,2.71-.36.92A.91.91,0,0,0,40,35.67l5,2a.91.91,0,0,0,1.19-.51l.24-.61a.93.93,0,0,0,.74-.59l.35-.89A.94.94,0,0,0,47.39,34.09Zm-4.45-4.45,3.13,1.23-.35.89-3.13-1.23a.49.49,0,0,1-.28-.62A.48.48,0,0,1,42.94,29.64ZM40.4,34.8l.35-.89,1-2.67.45.18,3.36,1.31,1.12.44-.17.45-.45-.18a1.43,1.43,0,1,0-1.05,2.67l.45.17-.17.45Zm6.25-.12-.35.89-.45-.18-.45-.17a.48.48,0,0,1-.27-.62.47.47,0,0,1,.62-.27l.45.18Z"/><path id="Card-3" data-name="Card" class="cls-2" d="M102.36,8l-2.1,0-2.1,0a.67.67,0,0,0-.71.62l-.07,3.18a.67.67,0,0,0,.68.65l2.1.05,2.1,0a.67.67,0,0,0,.72-.62l.07-3.18A.68.68,0,0,0,102.36,8Zm-.08,3.82-2.1-.05-2.1,0,0-1.9,2.1,0,2.1.05Zm0-2.55-2.1,0-2.1-.05,0-.64,2.1.05,2.1.05Z"/><path id="Bag-5" data-name="Bag" class="cls-2" d="M68,200.86l-.18-.2A1.11,1.11,0,0,0,66.36,199l-.18-.2a.53.53,0,0,0-.74-.07L64,200.11a.53.53,0,0,0,0,.74l1.86,2a.52.52,0,0,0,.74.07L68,201.6A.51.51,0,0,0,68,200.86Zm-.56-1.35a.51.51,0,0,1,0,.74l-.74-.81A.52.52,0,0,1,67.47,199.51Zm-3.14,1,1.48-1.35.18.2-.18.17a.27.27,0,0,0,0,.37.26.26,0,0,0,.37,0l.18-.16.75.81-.19.17a.27.27,0,0,0,0,.37.26.26,0,0,0,.37,0l.19-.16.18.2-1.48,1.35Z"/><g id="Receipt-5" data-name="Receipt"><path class="cls-2" d="M137.4,19.29,134.63,19a.5.5,0,0,0-.58.41l-.39,3.25a.24.24,0,0,0,.09.21.32.32,0,0,0,.25.07l.76-.14.7.31a.35.35,0,0,0,.17,0l.76-.14.71.31.09,0a.45.45,0,0,0,.16,0,.25.25,0,0,0,.14-.19l.38-3.25A.51.51,0,0,0,137.4,19.29ZM137,22.67l-.44-.19a.26.26,0,0,0-.17,0l-.76.13-.71-.31-.08,0h-.09l-.48.09.34-2.88,2.73.32Z"/><ellipse class="cls-2" cx="136.69" cy="20.47" rx="0.25" ry="0.27" transform="translate(100.33 153.81) rotate(-83.27)"/><path class="cls-2" d="M135,20.52l.82.1a.26.26,0,0,0,.3-.22.26.26,0,0,0-.24-.28l-.82-.09a.26.26,0,0,0-.3.21A.25.25,0,0,0,135,20.52Z"/><ellipse class="cls-2" cx="136.6" cy="21.21" rx="0.25" ry="0.28" transform="translate(99.52 154.38) rotate(-83.27)"/><path class="cls-2" d="M134.93,21.27l.82.09a.25.25,0,0,0,.3-.21.26.26,0,0,0-.24-.28l-.82-.1a.25.25,0,1,0-.06.5Z"/></g><path id="Gift-3" data-name="Gift" class="cls-2" d="M77.59,33.38l-.32,0a.62.62,0,0,0,.08-.24.79.79,0,0,0-.73-.84.8.8,0,0,0-.57.13.81.81,0,0,0-.53-.26.78.78,0,0,0-.9.65.71.71,0,0,0,0,.25l-.32,0a.53.53,0,0,0-.61.43l-.09.75a.27.27,0,0,0,.25.28l-.12,1a.52.52,0,0,0,.49.56l2.73.33a.53.53,0,0,0,.6-.44l.12-1a.26.26,0,0,0,.3-.22l.09-.74A.53.53,0,0,0,77.59,33.38Zm-.11,1-1.37-.16.06-.5,1.36.17Zm-.92-1.62a.26.26,0,0,1,.24.28.27.27,0,0,1-.54-.06A.26.26,0,0,1,76.56,32.75Zm-1.4.09a.28.28,0,0,1,.31-.22.25.25,0,1,1-.06.5A.27.27,0,0,1,75.16,32.84Zm-.9.65,1.36.16-.06.5L74.2,34Zm.15,1,1.09.13-.11,1-1.09-.13ZM77,35.83l-1.1-.13.12-1,1.09.13Z"/><g id="Lock-4" data-name="Lock"><path class="cls-2" d="M83.35,85.41l.17-1a2.12,2.12,0,0,0-4.16-.75l-.18,1a1,1,0,0,0-1.21.79l-.54,2.94a1,1,0,0,0,.87,1.17l4.16.75a1,1,0,0,0,1.22-.79l.53-2.94A1,1,0,0,0,83.35,85.41ZM80.4,83.87a1.06,1.06,0,0,1,2.08.38l-.17,1-2.09-.38Zm-1.93,4.71L79,85.64l4.16.75-.53,2.94Z"/><ellipse class="cls-2" cx="80.82" cy="87.49" rx="0.5" ry="0.53" transform="translate(-19.68 151.4) rotate(-79.72)"/></g><g id="Cash-5" data-name="Cash"><path class="cls-2" d="M98.2,274.7,94.07,274a.67.67,0,0,0-.8.5L92.81,277a.68.68,0,0,0,.58.75l4.13.75a.67.67,0,0,0,.8-.5l.46-2.51A.68.68,0,0,0,98.2,274.7Zm-1.19,3-2.88-.53a1,1,0,0,0-.52-.68l.24-1.36a1,1,0,0,0,.73-.46l2.88.52a1,1,0,0,0,.53.68l-.25,1.37A1,1,0,0,0,97,277.72Z"/><path class="cls-2" d="M96,275.26a1,1,0,0,0-1.21.76,1,1,0,0,0,.87,1.12,1,1,0,0,0,1.2-.75A1,1,0,0,0,96,275.26Zm-.23,1.26a.35.35,0,0,1-.29-.38.35.35,0,1,1,.29.38Z"/></g><g id="Cart-6" data-name="Cart"><ellipse class="cls-2" cx="90.56" cy="337.78" rx="0.72" ry="0.72" transform="translate(-256.98 298.96) rotate(-68.62)"/><ellipse class="cls-2" cx="93.7" cy="339" rx="0.72" ry="0.72" transform="translate(-256.13 302.66) rotate(-68.62)"/><path class="cls-2" d="M95.5,336.38a.49.49,0,0,0,.55-.14L98,333.93a.48.48,0,0,0,.09-.43.46.46,0,0,0-.29-.33l-6.27-2.45a.47.47,0,0,0-.62.27.48.48,0,0,0,.27.62l.45.17-1.22,3.11a1.44,1.44,0,0,0,.82,1.86l3.59,1.41a.49.49,0,0,0,.62-.27.48.48,0,0,0-.27-.62l-3.59-1.41a.47.47,0,0,1-.27-.62l.17-.44Zm1.32-2.56-1.29,1.54-3.71-1.45.7-1.78Z"/></g><path id="Bag-6" data-name="Bag" class="cls-2" d="M47,269.86l-.18-.2A1.11,1.11,0,0,0,45.36,268l-.18-.2a.53.53,0,0,0-.74-.07L43,269.11a.53.53,0,0,0,0,.74l1.86,2a.52.52,0,0,0,.74.07L47,270.6A.51.51,0,0,0,47,269.86Zm-.56-1.35a.51.51,0,0,1,0,.74l-.74-.81A.52.52,0,0,1,46.47,268.51Zm-3.14,1,1.48-1.35.18.2-.18.17a.27.27,0,0,0,0,.37.26.26,0,0,0,.37,0l.18-.16.75.81-.19.17a.27.27,0,0,0,0,.37.26.26,0,0,0,.37,0l.19-.16.18.2-1.48,1.35Z"/><g id="Receipt-6" data-name="Receipt"><path class="cls-2" d="M99.4,156.29,96.63,156a.5.5,0,0,0-.58.41l-.39,3.25a.24.24,0,0,0,.09.21.32.32,0,0,0,.25.07l.76-.14.7.31a.35.35,0,0,0,.17,0l.76-.14.71.31.09,0a.45.45,0,0,0,.16,0,.25.25,0,0,0,.14-.19l.38-3.25A.51.51,0,0,0,99.4,156.29ZM99,159.67l-.44-.19a.26.26,0,0,0-.17,0l-.76.13-.71-.31-.08,0h-.09l-.48.09.34-2.88,2.73.32Z"/><ellipse class="cls-2" cx="98.69" cy="157.47" rx="0.25" ry="0.27" transform="translate(-69.27 237.01) rotate(-83.27)"/><path class="cls-2" d="M97,157.52l.82.1a.26.26,0,0,0,.3-.22.26.26,0,0,0-.24-.28l-.82-.09a.26.26,0,0,0-.3.21A.25.25,0,0,0,97,157.52Z"/><ellipse class="cls-2" cx="98.6" cy="158.21" rx="0.25" ry="0.28" transform="translate(-70.08 237.58) rotate(-83.27)"/><path class="cls-2" d="M96.93,158.27l.82.09a.25.25,0,0,0,.3-.21.26.26,0,0,0-.24-.28l-.82-.1a.25.25,0,1,0-.06.5Z"/></g><g id="Box-7" data-name="Box"><path class="cls-2" d="M83.2,234.49l-9.06-1.07a1.46,1.46,0,0,0-1.68,1.18l-.24,2a.74.74,0,0,0,.68.77l-.65,5.48a1.4,1.4,0,0,0,1.3,1.48l7.67.91a1.4,1.4,0,0,0,1.61-1.14l.65-5.48a.72.72,0,0,0,.83-.59l.24-2A1.45,1.45,0,0,0,83.2,234.49Zm-9.22.29L83,235.85l-.16,1.36-9.06-1.07Zm7.35,9.13L73.77,243l.64-5.43,7.56.89Z"/><path class="cls-2" d="M76.44,239.89l3,.36a.69.69,0,1,0,.16-1.36l-3-.36a.69.69,0,1,0-.16,1.36Z"/></g><g id="Tag-6" data-name="Tag"><path class="cls-2" d="M80.86,303.88l-2.34-1.69a.52.52,0,0,0-.36-.08l-4.69.75a.48.48,0,0,0-.39.55l.79,4.68a.51.51,0,0,0,.2.31.5.5,0,0,0,.36.09l4.68-.76a.46.46,0,0,0,.31-.19l1.67-2.33A.94.94,0,0,0,80.86,303.88Zm-2.1,2.94-4,.65-.63-3.74,4-.64,2.19,1.56Z"/><ellipse class="cls-2" cx="78.3" cy="304.97" rx="0.48" ry="0.48" transform="matrix(0.58, -0.81, 0.81, 0.58, -215.23, 191.05)"/></g><g id="Shop-6" data-name="Shop"><path class="cls-2" d="M39.28,291.28a.47.47,0,0,0-.67.11l-1.11,1.55-.79-.56.56-.78a1.44,1.44,0,0,0-2.35-1.68l-.55.78-.79-.56,1.12-1.56a.47.47,0,0,0-.12-.66.48.48,0,0,0-.67.1L32.52,290a.48.48,0,0,0,.12.67L37.33,294a.49.49,0,0,0,.67-.11L39.39,292A.49.49,0,0,0,39.28,291.28Zm-3.57-.8a.48.48,0,0,1,.66-.11.48.48,0,0,1,.12.67l-.56.78-.78-.56Z"/><path class="cls-2" d="M41.38,289.28l-.25-1.42a1.38,1.38,0,0,0-.53-.91l-1.17-.84-1.17-.85a1.43,1.43,0,0,0-1-.2l-1.42.23a1.4,1.4,0,0,0-.93.57,1.43,1.43,0,0,0-.24,1.06,1.45,1.45,0,0,0,.59.93,1.48,1.48,0,0,0,1.07.26l.16,0a2,2,0,0,0,.75,1.13h0a2,2,0,0,0,1.31.35l0,.17a1.4,1.4,0,0,0,.58.92,1.43,1.43,0,0,0,1.07.26,1.42,1.42,0,0,0,1.18-1.63Zm-1.33.68a.5.5,0,0,1-.56-.39l-.12-.67a.49.49,0,0,0-.25-.34.46.46,0,0,0-.41,0,1,1,0,0,1-1-.11,1,1,0,0,1-.4-.85.47.47,0,0,0-.15-.39.5.5,0,0,0-.4-.13l-.67.1a.49.49,0,0,1-.56-.4.42.42,0,0,1,.08-.34.46.46,0,0,1,.3-.19l1.41-.22a.51.51,0,0,1,.33,0l1.18.84,1.17.84a.52.52,0,0,1,.14.3l.24,1.42a.46.46,0,0,1-.08.34A.42.42,0,0,1,40.05,290Z"/></g><path id="Wallet-3" data-name="Wallet" class="cls-2" d="M56.39,310.09l.24-.6a.91.91,0,0,0-.52-1.19l-.49-.19.52-1.33a.47.47,0,0,0-.27-.62l-3.59-1.41a1.43,1.43,0,0,0-1.86.81l-.51,1.29-1.06,2.71-.36.92a.91.91,0,0,0,.52,1.19l5,2a.91.91,0,0,0,1.19-.51l.24-.61a.93.93,0,0,0,.74-.59l.35-.89A.94.94,0,0,0,56.39,310.09Zm-4.45-4.45,3.13,1.23-.35.89-3.13-1.23a.49.49,0,0,1-.28-.62A.48.48,0,0,1,51.94,305.64ZM49.4,310.8l.35-.89,1-2.67.45.18,3.36,1.31,1.12.44-.17.45-.45-.18a1.43,1.43,0,1,0-1.05,2.67l.45.17-.17.45Zm6.25-.12-.35.89-.45-.18-.45-.17a.48.48,0,0,1-.27-.62.47.47,0,0,1,.62-.27l.45.18Z"/><path id="Card-4" data-name="Card" class="cls-2" d="M37.36,154l-2.1-.05-2.1,0a.67.67,0,0,0-.71.62l-.07,3.18a.67.67,0,0,0,.68.65l2.1.05,2.1,0a.67.67,0,0,0,.72-.62l.07-3.18A.68.68,0,0,0,37.36,154Zm-.08,3.82-2.1-.05-2.1,0,0-1.9,2.1,0,2.1.05Zm0-2.55-2.1,0-2.1-.05,0-.64,2.1.05,2.1,0Z"/><g id="Invoice-3" data-name="Invoice"><path class="cls-2" d="M84.49,170.48l-2.19-.25a.51.51,0,0,0-.6.43l-.21,1.74-.54-.07a.53.53,0,0,0-.61.43h0l-.06.5a.79.79,0,0,0,.73.84l2.73.32a.78.78,0,0,0,.91-.64l0-.25,0-.25.26-2.23A.52.52,0,0,0,84.49,170.48Zm-3.66,2.84.06-.49,2.18.26-.06.49a.74.74,0,0,0,0,.26l-2-.23A.27.27,0,0,1,80.83,173.32Zm3.28.39a.27.27,0,0,1-.31.22.26.26,0,0,1-.24-.28l.06-.5a.54.54,0,0,0-.49-.56L82,172.46l.2-1.74,2.19.26-.27,2.24,0,.24Z"/><path class="cls-2" d="M83.85,171.16,82.76,171a.25.25,0,0,0-.3.21.26.26,0,0,0,.24.28l1.09.13a.27.27,0,0,0,.31-.21A.28.28,0,0,0,83.85,171.16Z"/><path class="cls-2" d="M83.76,171.91l-1.09-.13a.25.25,0,1,0-.06.5l1.1.13a.27.27,0,0,0,.3-.22A.27.27,0,0,0,83.76,171.91Z"/></g><g id="Receipt-7" data-name="Receipt"><path class="cls-2" d="M128.4,332.29l-2.77-.32a.5.5,0,0,0-.58.41l-.39,3.25a.24.24,0,0,0,.09.21.32.32,0,0,0,.25.07l.76-.14.7.31a.35.35,0,0,0,.17,0l.76-.14.71.31.09,0a.45.45,0,0,0,.16,0,.25.25,0,0,0,.14-.19l.38-3.25A.51.51,0,0,0,128.4,332.29Zm-.42,3.38-.44-.19a.26.26,0,0,0-.17,0l-.76.13-.71-.31-.08,0h-.09l-.48.09.34-2.88,2.73.32Z"/><ellipse class="cls-2" cx="127.69" cy="333.47" rx="0.25" ry="0.27" transform="translate(-218.45 421.17) rotate(-83.27)"/><path class="cls-2" d="M126,333.52l.82.1a.26.26,0,0,0,.3-.22.26.26,0,0,0-.24-.28l-.82-.09a.26.26,0,0,0-.3.21A.25.25,0,0,0,126,333.52Z"/><ellipse class="cls-2" cx="127.6" cy="334.21" rx="0.25" ry="0.28" transform="translate(-219.27 421.74) rotate(-83.27)"/><path class="cls-2" d="M125.93,334.27l.82.09a.25.25,0,0,0,.3-.21.26.26,0,0,0-.24-.28l-.82-.1a.25.25,0,1,0-.06.5Z"/></g><path id="Gift-4" data-name="Gift" class="cls-2" d="M10.29,335.83l-.4-.07a1,1,0,0,0,.12-.3,1,1,0,0,0-.87-1.13,1.07,1.07,0,0,0-.73.12,1.1,1.1,0,0,0-.64-.37,1,1,0,0,0-1.21.75.92.92,0,0,0,0,.33l-.41-.08a.67.67,0,0,0-.8.5l-.17.94a.35.35,0,0,0,.29.38l-.23,1.25a.67.67,0,0,0,.57.75l3.45.63a.68.68,0,0,0,.8-.51l.23-1.25a.33.33,0,0,0,.4-.25l.17-.94A.68.68,0,0,0,10.29,335.83Zm-.22,1.25-1.72-.31.11-.63,1.72.32ZM9,335a.35.35,0,0,1,.29.38.35.35,0,0,1-.69-.12A.34.34,0,0,1,9,335Zm-1.78,0a.34.34,0,0,1,.4-.26.35.35,0,0,1,.29.38.35.35,0,0,1-.69-.12Zm-1.2.75,1.72.31-.11.63-1.73-.32ZM6.17,337l1.37.25-.22,1.25-1.38-.25Zm3.21,1.88L8,338.65l.23-1.25,1.38.25Z"/><g id="Cart-7" data-name="Cart"><ellipse class="cls-2" cx="109.75" cy="213.81" rx="0.38" ry="0.41" transform="translate(-129.17 187.81) rotate(-56.62)"/><ellipse class="cls-2" cx="111.36" cy="214.87" rx="0.38" ry="0.41" transform="translate(-129.33 189.63) rotate(-56.62)"/><path class="cls-2" d="M112.6,213.74a.25.25,0,0,0,.31,0l1.29-1a.23.23,0,0,0,.09-.21.32.32,0,0,0-.13-.21L111,210.26a.26.26,0,0,0-.37.05.25.25,0,0,0,.09.36l.23.15-1,1.47a.79.79,0,0,0,.27,1.08l1.84,1.21a.28.28,0,0,0,.37-.06.27.27,0,0,0-.09-.36L110.49,213a.26.26,0,0,1-.09-.36l.13-.21Zm1-1.16-.86.64-1.9-1.26.55-.83Z"/></g><g id="Tag-7" data-name="Tag"><path class="cls-2" d="M80.46,188.23,78,187.59a.44.44,0,0,0-.32,0L74,189.83a.43.43,0,0,0-.15.59L76,194.09a.42.42,0,0,0,.59.15l3.67-2.19a.41.41,0,0,0,.2-.26l.63-2.51A.86.86,0,0,0,80.46,188.23Zm-.8,3.17-3.15,1.88-1.74-2.93,3.14-1.88,2.34.6Z"/><circle class="cls-2" cx="78.68" cy="190" r="0.43" transform="translate(-124.84 219.56) rotate(-75.77)"/></g><path id="Delivery-7" data-name="Delivery" class="cls-3" d="M112.24,250.81l-1.92-.73a.45.45,0,0,0-.36,0l-.86.41-.21-.45a1,1,0,0,0-1.28-.49l-2.56,1.21a1,1,0,0,0-.43,1.3l1.7,3.58a1,1,0,0,0,1.28.49.94.94,0,1,0,1.7-.81l1.71-.81a2.08,2.08,0,0,0,2.14-2.11l-.64-1.34A.49.49,0,0,0,112.24,250.81Zm-5.07,4.44-1.69-3.58,2.56-1.22,1.69,3.58Zm5.13-2.43-1.71.81-1.06-2.24.67-.32,1.55.59Z"/><path id="Bag-7" data-name="Bag" class="cls-2" d="M134.31,182.39l-.32-.13a1.41,1.41,0,0,0-2.57-1.11l-.33-.14a.67.67,0,0,0-.89.31l-1,2.34a.66.66,0,0,0,.39.86l3.21,1.38a.66.66,0,0,0,.9-.31l1-2.33A.67.67,0,0,0,134.31,182.39ZM133,181.12a.68.68,0,0,1,.4.86l-1.29-.55A.67.67,0,0,1,133,181.12Zm-3.11,2.82,1-2.34.33.14L131,182a.34.34,0,0,0,.2.43.33.33,0,0,0,.44-.15l.13-.3,1.29.56-.13.29a.34.34,0,0,0,.2.43.33.33,0,0,0,.44-.16l.13-.29.32.14-1,2.34Z"/><g id="Shop-7" data-name="Shop"><path class="cls-2" d="M64.27,214.6a.52.52,0,0,0-.72.08l-1,1.56-.93-.61.51-.78A1.68,1.68,0,0,0,59.34,213l-.52.78-.93-.61,1-1.56a.51.51,0,0,0-.2-.69A.52.52,0,0,0,58,211L56.71,213a.52.52,0,0,0,.21.7l5.55,3.66a.52.52,0,0,0,.72-.08l1.29-2A.51.51,0,0,0,64.27,214.6Zm-4-1a.52.52,0,0,1,.72-.08.51.51,0,0,1,.21.69l-.52.78-.92-.61Z"/><path class="cls-2" d="M66.33,212.61l-.44-1.47a1.76,1.76,0,0,0-.69-1l-1.39-.92-1.39-.91a1.73,1.73,0,0,0-1.16-.25l-1.52.17a1.25,1.25,0,0,0-1.09,1.65,1.9,1.9,0,0,0,.76,1,1.79,1.79,0,0,0,1.2.31l.18,0a2.46,2.46,0,0,0,1,1.19h0a2.49,2.49,0,0,0,1.47.41l.05.18a1.87,1.87,0,0,0,.76,1,1.8,1.8,0,0,0,1.2.31,1.23,1.23,0,0,0,1.09-1.64Zm-1.37.66a.65.65,0,0,1-.66-.44l-.22-.69a.62.62,0,0,0-.77-.4,1.19,1.19,0,0,1-1-.14,1.21,1.21,0,0,1-.55-.91.55.55,0,0,0-.21-.41.66.66,0,0,0-.46-.14l-.72.08a.65.65,0,0,1-.66-.44.42.42,0,0,1,0-.35.42.42,0,0,1,.31-.18l1.52-.18a.6.6,0,0,1,.37.05l1.39.91,1.39.92a.69.69,0,0,1,.18.31l.44,1.48a.39.39,0,0,1,0,.35A.45.45,0,0,1,65,213.27Z"/></g><path id="Gift-5" data-name="Gift" class="cls-2" d="M30.89,215.68l-.27-.18a.77.77,0,0,0,.18-.18.79.79,0,0,0-.27-1.08.86.86,0,0,0-.57-.14.89.89,0,0,0-.35-.47.79.79,0,0,0-1.1.17.82.82,0,0,0-.1.24l-.27-.18a.53.53,0,0,0-.73.12l-.42.62a.27.27,0,0,0,.09.36l-.55.84a.53.53,0,0,0,.19.72L29,218a.53.53,0,0,0,.74-.11l.55-.84a.26.26,0,0,0,.37-.06l.41-.62A.52.52,0,0,0,30.89,215.68Zm-.55.83-1.14-.75.27-.42,1.15.76Zm-.09-1.85a.25.25,0,1,1-.27.41.25.25,0,1,1,.27-.41ZM29,214.11a.25.25,0,0,1,.36-.06.25.25,0,1,1-.27.42A.26.26,0,0,1,29,214.11Zm-1.11.17L29,215l-.27.41-1.15-.75Zm-.32,1,.92.6-.55.84L27,216.1Zm1.75,2.34-.92-.6.55-.84.92.61Z"/><path class="cls-4" d="M111.73,190.38a31.94,31.94,0,0,1-2.17,7,.14.14,0,0,0,.09.19,62.69,62.69,0,0,0,8,2.24c.17,0,.24-.22.07-.25a63.3,63.3,0,0,1-8-2.24l.09.19a33.05,33.05,0,0,0,2.19-7c0-.16-.23-.23-.26-.07Z"/><path class="cls-4" d="M110.45,195.51c1-.57,1.91-1.16,2.84-1.77l-.19-.08a5,5,0,0,0,.66,1.58,1.39,1.39,0,0,0,.42.51c.2.1.44-.06.62-.14,1.3-.56,2.58-1.16,3.85-1.79.15-.07,0-.3-.14-.22q-1.55.77-3.12,1.47c-.26.11-.52.25-.79.34s-.3.14-.43,0-.16-.24-.23-.36a5.14,5.14,0,0,1-.59-1.43.14.14,0,0,0-.19-.08q-1.41.92-2.85,1.77a.14.14,0,0,0,.14.23Z"/><path class="cls-4" d="M111.83,190.27l-.5.56.1.07a2.61,2.61,0,0,1,.52-.58h-.09a3.44,3.44,0,0,1,.35.69c0,.07.14,0,.11,0a3,3,0,0,0-.36-.72.06.06,0,0,0-.09,0,2.65,2.65,0,0,0-.55.61c0,.06.05.12.1.07l.5-.55a.06.06,0,0,0-.09-.09Z"/><path class="cls-4" d="M117.65,199.54a2.76,2.76,0,0,0-.34-.5l-.08.1.23.18c.08.08.12.11.12.23s0,.13-.11.2a.83.83,0,0,1-.21.16c-.06.05,0,.15.07.11a2.51,2.51,0,0,0,.31-.26c0-.06.13-.13.13-.21s-.09-.17-.14-.22a2.43,2.43,0,0,0-.34-.3c-.05,0-.11.05-.07.1a1.86,1.86,0,0,1,.32.47c0,.07.14,0,.11-.06Z"/><path class="cls-4" d="M111,192.13h.26s.23,0,.25.05a.06.06,0,0,0,.12,0c0-.09-.12-.1-.21-.11l-.42,0c-.08,0-.07.12,0,.12Z"/><path class="cls-4" d="M110.65,193.6a.69.69,0,0,1,.35,0c.07,0,.1-.1,0-.12a1.14,1.14,0,0,0-.41,0,.06.06,0,0,0,0,.12Z"/><path class="cls-4" d="M110,195.23a2.4,2.4,0,0,0,.53.12c.08,0,.08-.11,0-.12a2.15,2.15,0,0,1-.5-.12.06.06,0,1,0,0,.12Z"/><path class="cls-4" d="M111.29,198l-.13.35c0,.07.09.1.12,0l.12-.34a.06.06,0,1,0-.11,0Z"/><path class="cls-4" d="M113.37,198.74l-.08.31c0,.07.1.11.12,0l.08-.31c0-.07-.1-.1-.12,0Z"/><path class="cls-4" d="M115.47,199.21l-.12.33c0,.07.1.1.12,0l.12-.33c0-.07-.1-.1-.12,0Z"/><path id="Card-5" data-name="Card" class="cls-2" d="M47.36,190l-2.1-.05-2.1,0a.67.67,0,0,0-.71.62l-.07,3.18a.67.67,0,0,0,.68.65l2.1.05,2.1,0a.67.67,0,0,0,.72-.62l.07-3.18A.68.68,0,0,0,47.36,190Zm-.08,3.82-2.1-.05-2.1,0,0-1.9,2.1,0,2.1.05Zm0-2.55-2.1,0-2.1-.05,0-.64,2.1.05,2.1,0Z"/><g id="Invoice-4" data-name="Invoice"><path class="cls-2" d="M41.49,244.48l-2.19-.25a.51.51,0,0,0-.6.43l-.21,1.74-.54-.07a.53.53,0,0,0-.61.43h0l-.06.5a.79.79,0,0,0,.73.84l2.73.32a.78.78,0,0,0,.91-.64l0-.25,0-.25.26-2.23A.52.52,0,0,0,41.49,244.48Zm-3.66,2.84.06-.49,2.18.26-.06.49a.74.74,0,0,0,0,.26l-2-.23A.27.27,0,0,1,37.83,247.32Zm3.28.39a.27.27,0,0,1-.31.22.26.26,0,0,1-.24-.28l.06-.5a.54.54,0,0,0-.49-.56L39,246.46l.2-1.74,2.19.26-.27,2.24,0,.24Z"/><path class="cls-2" d="M40.85,245.16,39.76,245a.25.25,0,0,0-.3.21.26.26,0,0,0,.24.28l1.09.13a.27.27,0,0,0,.31-.21A.28.28,0,0,0,40.85,245.16Z"/><path class="cls-2" d="M40.76,245.91l-1.09-.13a.25.25,0,1,0-.06.5l1.1.13a.27.27,0,0,0,.3-.22A.27.27,0,0,0,40.76,245.91Z"/></g></g></g></g></svg>